<svg xmlns="http://www.w3.org/2000/svg" width="66.984" height="74.422" viewBox="0 0 66.984 74.422">
  <g id="archivo" transform="translate(-23.988)">
    <g id="Grupo_964504" data-name="Grupo 964504" transform="translate(25.232 1.24)">
      <path id="Trazado_728117" data-name="Trazado 728117" d="M288.716,402.08q.048.384.124.76C288.789,402.59,288.75,402.336,288.716,402.08Z" transform="translate(-248.917 -340.983)" fill="#dee9f0"/>
      <path id="Trazado_728118" data-name="Trazado 728118" d="M290.06,409.736c.06.263.124.521.207.776C290.19,410.257,290.115,410,290.06,409.736Z" transform="translate(-250.053 -347.452)" fill="#dee9f0"/>
      <path id="Trazado_728119" data-name="Trazado 728119" d="M361.436,312.079c.3-.026.609-.045.918-.047C362.05,312.034,361.744,312.053,361.436,312.079Z" transform="translate(-310.363 -264.896)" fill="#dee9f0"/>
      <path id="Trazado_728120" data-name="Trazado 728120" d="M288.9,321.189a12.962,12.962,0,0,0-.448,2.29,12.412,12.412,0,0,1,11.039-11.039,12.9,12.9,0,0,0-2.3.449A12.286,12.286,0,0,0,288.9,321.189Z" transform="translate(-248.694 -265.24)" fill="#dee9f0"/>
      <path id="Trazado_728121" data-name="Trazado 728121" d="M288.012,386.283c0-.314.021-.62.047-.931C288.038,385.665,288.019,385.976,288.012,386.283Z" transform="translate(-248.322 -326.848)" fill="#dee9f0"/>
      <path id="Trazado_728122" data-name="Trazado 728122" d="M378.844,312.8c-.248-.047-.5-.088-.76-.124Q378.469,312.734,378.844,312.8Z" transform="translate(-324.43 -265.443)" fill="#dee9f0"/>
      <path id="Trazado_728123" data-name="Trazado 728123" d="M370.7,312.139c-.274-.024-.549-.036-.827-.043C370.159,312.1,370.435,312.116,370.7,312.139Z" transform="translate(-317.494 -264.95)" fill="#dee9f0"/>
      <path id="Trazado_728124" data-name="Trazado 728124" d="M288.108,393.888c.007.279.019.556.045.83C288.128,394.444,288.115,394.167,288.108,393.888Z" transform="translate(-248.403 -334.061)" fill="#dee9f0"/>
      <path id="Trazado_728125" data-name="Trazado 728125" d="M292.488,418.126c-.155-.35-.29-.711-.412-1.078C292.2,417.415,292.333,417.776,292.488,418.126Z" transform="translate(-251.756 -353.63)" fill="#dee9f0"/>
      <path id="Trazado_728126" data-name="Trazado 728126" d="M386.529,314.254c-.248-.076-.511-.146-.773-.206C386.018,314.1,386.274,314.178,386.529,314.254Z" transform="translate(-330.912 -266.599)" fill="#dee9f0"/>
      <path id="Trazado_728127" data-name="Trazado 728127" d="M394.138,316.476c-.35-.155-.711-.29-1.078-.412C393.427,316.186,393.788,316.321,394.138,316.476Z" transform="translate(-337.084 -268.302)" fill="#dee9f0"/>
      <path id="Trazado_728128" data-name="Trazado 728128" d="M72.226,71.061c-.077-.256-.148-.513-.207-.776-.032-.14-.06-.283-.087-.427q-.073-.372-.124-.76c-.019-.146-.037-.293-.05-.44-.026-.274-.037-.551-.045-.83,0-.1-.015-.193-.015-.293v-.1c0-.308.021-.62.047-.931.007-.088.007-.179.016-.265a12.96,12.96,0,0,1,.448-2.29,12.287,12.287,0,0,1,8.3-8.3,12.9,12.9,0,0,1,2.3-.449c.092-.01.186-.01.279-.017.308-.026.62-.045.918-.047h.1c.1,0,.195.014.294.015.278.007.553.02.827.043.148.014.294.032.44.051q.385.048.76.124c.144.027.287.055.429.088.262.06.518.124.773.206.124.036.248.067.36.107.372.124.728.257,1.078.412v-45.7A2.481,2.481,0,0,0,86.583,8H48.136V20.4a2.481,2.481,0,0,1-2.481,2.481H32.012V70.015A2.481,2.481,0,0,0,34.493,72.5H72.744c-.155-.35-.29-.711-.412-1.078-.038-.118-.069-.238-.105-.357Z" transform="translate(-32.012 -8)" fill="#dee9f0"/>
    </g>
    <path id="Trazado_728129" data-name="Trazado 728129" d="M48.136,20.4V8L32.012,22.884H45.655A2.481,2.481,0,0,0,48.136,20.4Z" transform="translate(-6.78 -6.76)" fill="#feb12e"/>
    <path id="Trazado_728130" data-name="Trazado 728130" d="M305.39,313.048c-.35-.155-.711-.29-1.078-.412-.118-.04-.239-.071-.36-.107-.248-.076-.511-.146-.773-.206-.143-.032-.285-.061-.429-.088-.248-.047-.5-.088-.76-.124-.146-.019-.293-.037-.44-.051-.273-.024-.549-.036-.827-.043-.131,0-.263-.011-.4-.01-.309,0-.614.021-.918.047-.093.007-.186.007-.279.017a12.412,12.412,0,0,0-11.039,11.039c-.009.089-.009.176-.016.265-.026.308-.045.62-.047.931,0,.131.007.262.01.392.007.279.02.556.045.83.012.148.031.294.05.44.033.255.073.51.124.76.027.144.055.286.087.427.06.263.124.521.207.776.036.124.067.239.105.357.124.372.257.728.412,1.078a12.4,12.4,0,1,0,16.322-16.32Zm-7.442,16.322-4.022-4.022,4.022,4.022,9.284-9.284Z" transform="translate(-223.104 -263.634)" fill="#badc61"/>
    <g id="Grupo_964505" data-name="Grupo 964505" transform="translate(64.926 48.367)">
      <path id="Trazado_728131" data-name="Trazado 728131" d="M291.4,414.744c.036.124.067.239.105.357C291.463,414.983,291.432,414.863,291.4,414.744Z" transform="translate(-290.875 -398.81)" fill="#ffe9cc"/>
      <path id="Trazado_728132" data-name="Trazado 728132" d="M289.5,406.984c.027.144.055.287.087.427C289.555,407.266,289.527,407.128,289.5,406.984Z" transform="translate(-289.273 -392.253)" fill="#ffe9cc"/>
      <path id="Trazado_728133" data-name="Trazado 728133" d="M391.1,315.483c-.118-.04-.239-.071-.36-.107C390.86,315.412,390.982,315.443,391.1,315.483Z" transform="translate(-374.817 -314.848)" fill="#ffe9cc"/>
      <path id="Trazado_728134" data-name="Trazado 728134" d="M288.048,391.752c0-.124-.011-.26-.01-.392v.1C288.033,391.558,288.045,391.654,288.048,391.752Z" transform="translate(-288.037 -379.051)" fill="#ffe9cc"/>
      <path id="Trazado_728135" data-name="Trazado 728135" d="M383.417,313.568c-.143-.034-.285-.061-.429-.088C383.132,313.507,383.271,313.536,383.417,313.568Z" transform="translate(-368.267 -313.246)" fill="#ffe9cc"/>
      <path id="Trazado_728136" data-name="Trazado 728136" d="M367.356,311.973c.133,0,.264.007.4.01-.1,0-.195-.015-.294-.015A.7.7,0,0,1,367.356,311.973Z" transform="translate(-355.058 -311.968)" fill="#ffe9cc"/>
      <path id="Trazado_728137" data-name="Trazado 728137" d="M288.4,399.24c.012.148.031.294.05.44C288.427,399.534,288.408,399.388,288.4,399.24Z" transform="translate(-288.34 -385.71)" fill="#ffe9cc"/>
      <path id="Trazado_728138" data-name="Trazado 728138" d="M359.915,312.336c-.093.007-.187.007-.279.017C359.729,312.343,359.818,312.343,359.915,312.336Z" transform="translate(-348.535 -312.279)" fill="#ffe9cc"/>
      <path id="Trazado_728139" data-name="Trazado 728139" d="M288.364,383.64c-.009.087-.009.177-.016.265C288.355,383.82,288.355,383.729,288.364,383.64Z" transform="translate(-288.3 -372.528)" fill="#ffe9cc"/>
      <path id="Trazado_728140" data-name="Trazado 728140" d="M375.684,312.427c-.146-.019-.293-.037-.44-.051C375.392,312.39,375.538,312.408,375.684,312.427Z" transform="translate(-361.724 -312.313)" fill="#ffe9cc"/>
    </g>
    <g id="Grupo_964506" data-name="Grupo 964506" transform="translate(23.988)">
      <path id="Trazado_728141" data-name="Trazado 728141" d="M83.526,48.635V3.721A3.721,3.721,0,0,0,79.805,0H41.356c-.026,0-.051.012-.077.015a1.216,1.216,0,0,0-.29.055,1.044,1.044,0,0,0-.124.038A1.241,1.241,0,0,0,40.51.33L24.386,15.214a1.214,1.214,0,0,0-.263.372,1.041,1.041,0,0,0-.047.124,1.215,1.215,0,0,0-.072.345c0,.026-.016.05-.016.076V63.256a3.721,3.721,0,0,0,3.721,3.721H65.185A13.636,13.636,0,1,0,83.526,48.635ZM40.116,4.073v9.57a1.24,1.24,0,0,1-1.24,1.24H28.4ZM27.713,64.5a1.24,1.24,0,0,1-1.24-1.24V17.364h12.4A3.721,3.721,0,0,0,42.6,13.643V2.481H79.805a1.24,1.24,0,0,1,1.24,1.24V47.65c-.083-.024-.169-.031-.248-.052a12.968,12.968,0,0,0-1.4-.291c-.124-.019-.248-.042-.365-.057a13.7,13.7,0,0,0-1.713-.118H77.2a13.614,13.614,0,0,0-1.679.124c-.159.02-.316.046-.474.072q-.62.107-1.222.267c-.146.037-.3.053-.442.1a13.543,13.543,0,0,0-9.136,9.144c-.041.143-.057.289-.094.433-.107.4-.2.814-.267,1.232-.026.154-.051.308-.071.463a13.537,13.537,0,0,0-.134,1.728v.087a13.814,13.814,0,0,0,.124,1.718c.015.115.036.229.053.344a13.36,13.36,0,0,0,.3,1.416c.021.079.029.164.051.248Zm49.612,7.442A11.155,11.155,0,0,1,67.1,65.24a9.926,9.926,0,0,1-.372-.984c-.046-.143-.083-.288-.124-.432-.053-.189-.107-.372-.15-.567s-.073-.357-.1-.536-.056-.33-.077-.5q-.037-.28-.06-.562c-.012-.17-.02-.342-.026-.513s-.012-.372-.01-.549.016-.372.029-.554c.01-.164.016-.327.033-.5a11.178,11.178,0,0,1,9.848-9.865c.179-.02.358-.027.538-.037s.336-.024.506-.026c.192,0,.384,0,.576.01.164,0,.327.012.5.025.192.015.384.035.576.06.164.021.326.048.489.077s.36.063.537.1c.2.045.393.1.588.156.136.038.274.073.408.118a10.211,10.211,0,0,1,.992.38,11.163,11.163,0,0,1-4.465,21.387Z" transform="translate(-23.988)" fill="#231f20"/>
      <path id="Trazado_728142" data-name="Trazado 728142" d="M89.252,210.481h37.209a1.24,1.24,0,1,0,0-2.481H89.252a1.24,1.24,0,1,0,0,2.481Z" transform="translate(-78.086 -175.752)" fill="#231f20"/>
      <path id="Trazado_728143" data-name="Trazado 728143" d="M89.252,258.481h37.209a1.24,1.24,0,1,0,0-2.481H89.252a1.24,1.24,0,1,0,0,2.481Z" transform="translate(-78.086 -216.31)" fill="#231f20"/>
      <path id="Trazado_728144" data-name="Trazado 728144" d="M89.252,306.481H120.26a1.24,1.24,0,1,0,0-2.481H89.252a1.24,1.24,0,1,0,0,2.481Z" transform="translate(-78.086 -256.868)" fill="#231f20"/>
      <path id="Trazado_728145" data-name="Trazado 728145" d="M115.3,352H89.252a1.24,1.24,0,1,0,0,2.481H115.3a1.24,1.24,0,1,0,0-2.481Z" transform="translate(-78.086 -297.427)" fill="#231f20"/>
      <path id="Trazado_728146" data-name="Trazado 728146" d="M153.252,162.481h27.287a1.24,1.24,0,0,0,0-2.481H153.252a1.24,1.24,0,1,0,0,2.481Z" transform="translate(-132.163 -135.194)" fill="#231f20"/>
      <path id="Trazado_728147" data-name="Trazado 728147" d="M89.252,162.481h4.961a1.24,1.24,0,1,0,0-2.481H89.252a1.24,1.24,0,1,0,0,2.481Z" transform="translate(-78.086 -135.194)" fill="#231f20"/>
      <path id="Trazado_728148" data-name="Trazado 728148" d="M331.827,356.566l-8.407,8.407-3.144-3.144a1.24,1.24,0,0,0-1.754,1.754l4.021,4.021a1.24,1.24,0,0,0,1.754,0l9.284-9.284a1.24,1.24,0,0,0-1.754-1.754Z" transform="translate(-272.564 -300.99)" fill="#231f20"/>
    </g>
  </g>
</svg>
