<svg xmlns="http://www.w3.org/2000/svg" width="70.332" height="84.235" viewBox="0 0 70.332 84.235">
  <g id="lista-de-verificacion" transform="translate(-43.074 -1.04)">
    <path id="Trazado_728149" data-name="Trazado 728149" d="M100.819,9.816l16,61.967a4.683,4.683,0,0,1-3.353,5.7L70.248,88.646a4.675,4.675,0,0,1-5.7-3.353l-16-61.984a4.675,4.675,0,0,1,3.353-5.7L95.121,6.447a4.672,4.672,0,0,1,5.7,3.369Z" transform="translate(-4.444 -4.389)" fill="#faedc0"/>
    <path id="Trazado_728150" data-name="Trazado 728150" d="M100.735,9.816l.3,1.156a9.8,9.8,0,0,1-1.6,8.274l-1.817,2.461a9.759,9.759,0,0,1-5.434,3.667l-28.7,7.416a9.76,9.76,0,0,1-6.524-.578L54.161,30.94a9.831,9.831,0,0,1-5.417-6.458l-.3-1.156a4.675,4.675,0,0,1,3.353-5.7L95.037,6.447a4.672,4.672,0,0,1,5.7,3.369Z" transform="translate(-4.361 -4.389)" fill="#fdf8e4"/>
    <path id="Trazado_728151" data-name="Trazado 728151" d="M174.872,9.816l16,61.967a4.683,4.683,0,0,1-3.353,5.7L144.3,88.646a4.675,4.675,0,0,1-5.7-3.353l-1.5-5.8a53.987,53.987,0,0,0,34.056-64.329l-2.213-8.654.248-.066a4.663,4.663,0,0,1,5.681,3.369Z" transform="translate(-78.497 -4.389)" opacity="0.1"/>
    <path id="Trazado_728152" data-name="Trazado 728152" d="M147.7,38.063v65.221a4.06,4.06,0,0,1-4.063,4.063H98.363a4.06,4.06,0,0,1-4.063-4.063V38.063A4.06,4.06,0,0,1,98.363,34h45.27a4.06,4.06,0,0,1,4.063,4.063Z" transform="translate(-42.766 -27.516)" fill="#e8f1f8"/>
    <path id="Trazado_728153" data-name="Trazado 728153" d="M147.8,37.979V103.2a4.06,4.06,0,0,1-4.063,4.063H98.463A4.06,4.06,0,0,1,94.4,103.2v-2.477a49.331,49.331,0,0,0,44.461-49.085V33.9h4.872a4.085,4.085,0,0,1,4.063,4.079Z" transform="translate(-42.849 -27.433)" opacity="0.1"/>
    <path id="Trazado_728154" data-name="Trazado 728154" d="M149.595,95a7.6,7.6,0,1,1-7.6-7.6A7.6,7.6,0,0,1,149.595,95Z" transform="translate(-76.243 -72.097)" fill="#feb12e"/>
    <path id="Trazado_728155" data-name="Trazado 728155" d="M149.595,217.6A7.6,7.6,0,1,1,142,210,7.6,7.6,0,0,1,149.595,217.6Z" transform="translate(-76.243 -174.448)" fill="#badc61"/>
    <path id="Trazado_728156" data-name="Trazado 728156" d="M149.595,340.1a7.6,7.6,0,1,1-7.6-7.6A7.6,7.6,0,0,1,149.595,340.1Z" transform="translate(-76.243 -276.716)" fill="#34bc85"/>
    <g id="Grupo_964507" data-name="Grupo 964507" transform="translate(43.074 1.04)">
      <path id="Trazado_728157" data-name="Trazado 728157" d="M113.237,67.163l-7.416-28.7V10.547a4.941,4.941,0,0,0-4.938-4.938H97.332l-.1-.4a5.563,5.563,0,0,0-6.771-4L73.451,5.609H55.613a4.945,4.945,0,0,0-4.955,4.938v.941l-3.419.892a5.591,5.591,0,0,0-4,6.771l7.416,28.688V75.768A4.941,4.941,0,0,0,55.6,80.706h3.551l.1.4a5.55,5.55,0,0,0,6.771,4L83,80.722h17.87a4.941,4.941,0,0,0,4.938-4.938v-.958l3.419-.892A5.6,5.6,0,0,0,113.237,67.163ZM95.516,5.609H80.47L90.908,2.917A3.8,3.8,0,0,1,95.516,5.609Zm-50.571,13.1a3.832,3.832,0,0,1,2.742-4.641l2.973-.76V25.956l-.479-.231c-4.608-2.1-5.037-6.606-5.236-7.019Zm1.767,6.8a10.237,10.237,0,0,0,2.742,1.8l1.222.562V40.8ZM65.572,83.381a3.777,3.777,0,0,1-4.608-2.692H75.977Zm38.482-7.614a3.189,3.189,0,0,1-3.188,3.188H55.6a3.2,3.2,0,0,1-3.188-3.188V10.547A3.189,3.189,0,0,1,55.6,7.359c51.612.017,44.626.017,45.27,0a3.189,3.189,0,0,1,3.188,3.188Zm4.74-3.534-2.989.776V45.478l5.731,22.115A3.832,3.832,0,0,1,108.794,72.233Z" transform="translate(-43.074 -1.04)"/>
      <path id="Trazado_728158" data-name="Trazado 728158" d="M161.285,120.2a.867.867,0,0,0,0,1.239l1.272,1.272a.867.867,0,0,0,1.239,0l3.386-3.386a.876.876,0,1,0-1.239-1.239l-2.775,2.775-.644-.644A.854.854,0,0,0,161.285,120.2Z" transform="translate(-141.544 -98.537)"/>
      <path id="Trazado_728159" data-name="Trazado 728159" d="M272.744,110.9H252.875a.875.875,0,1,0,0,1.751h19.868a.881.881,0,0,0,.875-.875.871.871,0,0,0-.875-.875Z" transform="translate(-217.494 -92.756)"/>
      <path id="Trazado_728160" data-name="Trazado 728160" d="M252.875,147.151H265.46a.875.875,0,1,0,0-1.751H252.875a.875.875,0,0,0,0,1.751Z" transform="translate(-217.494 -121.558)"/>
      <path id="Trazado_728161" data-name="Trazado 728161" d="M165.926,240.685l-2.758,2.758-.644-.644a.876.876,0,1,0-1.239,1.239l1.272,1.272a.867.867,0,0,0,1.239,0l3.386-3.386a.867.867,0,0,0,0-1.239.887.887,0,0,0-1.255,0Z" transform="translate(-141.544 -200.889)"/>
      <path id="Trazado_728162" data-name="Trazado 728162" d="M272.744,233.4H252.875a.875.875,0,0,0,0,1.751h19.868a.881.881,0,0,0,.875-.875.87.87,0,0,0-.875-.875Z" transform="translate(-217.494 -195.024)"/>
      <path id="Trazado_728163" data-name="Trazado 728163" d="M252.875,269.751H265.46a.875.875,0,0,0,0-1.751H252.875a.875.875,0,0,0,0,1.751Z" transform="translate(-217.494 -223.91)"/>
      <path id="Trazado_728164" data-name="Trazado 728164" d="M165.926,363.285l-2.758,2.758-.644-.644a.876.876,0,1,0-1.239,1.239l1.272,1.272a.867.867,0,0,0,1.239,0l3.386-3.386a.867.867,0,0,0,0-1.239A.887.887,0,0,0,165.926,363.285Z" transform="translate(-141.544 -303.24)"/>
      <path id="Trazado_728165" data-name="Trazado 728165" d="M272.744,356H252.875a.875.875,0,1,0,0,1.751h19.868a.881.881,0,0,0,.875-.875.87.87,0,0,0-.875-.875Z" transform="translate(-217.494 -297.376)"/>
      <path id="Trazado_728166" data-name="Trazado 728166" d="M265.46,390.5H252.875a.875.875,0,1,0,0,1.751H265.46a.875.875,0,1,0,0-1.751Z" transform="translate(-217.494 -326.178)"/>
      <path id="Trazado_728167" data-name="Trazado 728167" d="M137.473,99.045A8.473,8.473,0,1,0,129,90.573h0a8.479,8.479,0,0,0,8.473,8.473Zm0-15.195a6.722,6.722,0,1,1-6.705,6.722,6.728,6.728,0,0,1,6.705-6.722Z" transform="translate(-114.809 -68.712)"/>
      <path id="Trazado_728168" data-name="Trazado 728168" d="M137.573,204.7a8.481,8.481,0,1,0,8.489,8.473A8.479,8.479,0,0,0,137.573,204.7Zm0,15.195a6.722,6.722,0,1,1,6.722-6.722A6.739,6.739,0,0,1,137.573,219.895Z" transform="translate(-114.892 -171.064)"/>
      <path id="Trazado_728169" data-name="Trazado 728169" d="M137.573,327.2a8.481,8.481,0,1,0,8.489,8.473A8.479,8.479,0,0,0,137.573,327.2Zm0,15.211a6.722,6.722,0,1,1,6.722-6.722A6.739,6.739,0,0,1,137.573,342.411Z" transform="translate(-114.892 -273.332)"/>
    </g>
  </g>
</svg>
