<svg xmlns="http://www.w3.org/2000/svg" width="181" height="116" viewBox="0 0 181 116">
  <g id="Grupo_964525" data-name="Grupo 964525" transform="translate(-285 -4714)">
    <rect id="Rectángulo_340730" data-name="Rectángulo 340730" width="181" height="116" transform="translate(285 4714)" fill="#feb12e"/>
    <g id="indicador" transform="translate(326 4729)">
      <path id="Trazado_728170" data-name="Trazado 728170" d="M18,3H81.448V78.253H18Z" transform="translate(7.609 0.476)" fill="#dee9f0"/>
      <path id="Trazado_728171" data-name="Trazado 728171" d="M26,24h8.853V47.609H26Z" transform="translate(11.413 10.462)" fill="#badc61"/>
      <circle id="Elipse_6795" data-name="Elipse 6795" cx="21.948" cy="21.948" r="21.948" transform="translate(3.568 45.068)" fill="#eaeaea"/>
      <path id="Trazado_728172" data-name="Trazado 728172" d="M29.56,69.407a22.1,22.1,0,0,1-17.689-35.4A22.112,22.112,0,1,0,42.822,64.963,22,22,0,0,1,29.56,69.407Z" transform="translate(0.476 15.223)" fill="#cfcfcf"/>
      <path id="Trazado_728173" data-name="Trazado 728173" d="M24.156,38.1l-4.672,2.545-1.439,5.911,2.612,1.374,4.052-4.539Z" transform="translate(7.631 17.167)" fill="#98c7e6"/>
      <circle id="Elipse_6796" data-name="Elipse 6796" cx="2.951" cy="2.951" r="2.951" transform="translate(22.658 64.072)" fill="#a7dbfc"/>
      <g id="Grupo_964518" data-name="Grupo 964518" transform="translate(53.644 9.378)">
        <path id="Trazado_728174" data-name="Trazado 728174" d="M51,9.951l8.853,5.9V7Z" transform="translate(-30.342 -7)" fill="#34bc85"/>
        <path id="Trazado_728175" data-name="Trazado 728175" d="M48,21h8.853V49.035H48Z" transform="translate(-31.769 -0.342)" fill="#34bc85"/>
        <path id="Trazado_728176" data-name="Trazado 728176" d="M37,19h8.853V49.986H37Z" transform="translate(-37 -1.294)" fill="#34bc85"/>
      </g>
      <path id="Trazado_728177" data-name="Trazado 728177" d="M26.291,37.27a1.468,1.468,0,0,0-1.391.01l-4.672,2.545a1.476,1.476,0,0,0-.727.946l-1.294,5.315a4.426,4.426,0,1,0,5.412,2.843l3.643-4.081a1.475,1.475,0,0,0,.366-1.136l-.552-5.291a1.486,1.486,0,0,0-.785-1.151ZM20.734,51.017h0a1.476,1.476,0,1,1-.62-1.992A1.468,1.468,0,0,1,20.734,51.017Zm1.017-4.43c-.09-.056-.17-.125-.266-.176s-.2-.075-.292-.118l1.021-4.189,2.154-1.175.255,2.441Z" transform="translate(6.182 16.691)"/>
      <path id="Trazado_728178" data-name="Trazado 728178" d="M13,53h2.951v2.951H13Z" transform="translate(5.231 24.253)"/>
      <path id="Trazado_728179" data-name="Trazado 728179" d="M17,53h2.951v2.951H17Z" transform="translate(7.133 24.253)"/>
      <path id="Trazado_728180" data-name="Trazado 728180" d="M21,53h2.951v2.951H21Z" transform="translate(9.035 24.253)"/>
      <path id="Trazado_728181" data-name="Trazado 728181" d="M89.057,2H25.609a1.475,1.475,0,0,0-1.476,1.476V43.39A23.594,23.594,0,1,0,45.112,80.2H89.057a1.475,1.475,0,0,0,1.476-1.476V3.476A1.475,1.475,0,0,0,89.057,2ZM25.609,87.581A20.668,20.668,0,0,1,5.026,68.4H9.378V65.448H5.026a20.538,20.538,0,0,1,4.989-12.032l3.074,3.074L15.175,54.4,12.1,51.33a20.542,20.542,0,0,1,12.032-4.989v4.351h2.951V46.341A20.538,20.538,0,0,1,39.116,51.33L36.042,54.4l2.086,2.086L41.2,53.417A20.66,20.66,0,0,1,44.791,59.3v.245h.09a20.456,20.456,0,0,1,1.31,5.9H41.84V68.4h4.351A20.668,20.668,0,0,1,25.609,87.581ZM44.791,53.213a23.783,23.783,0,0,0-5.9-5.794V35.937h5.9Zm42.791,24.04H46.8a23.256,23.256,0,0,0,.937-18.466V34.462a1.475,1.475,0,0,0-1.476-1.476H37.413a1.475,1.475,0,0,0-1.476,1.476V45.728a23.39,23.39,0,0,0-8.853-2.337V4.951h60.5Z"/>
      <path id="Trazado_728182" data-name="Trazado 728182" d="M57.329,50.986A1.475,1.475,0,0,0,58.8,49.511V21.476A1.475,1.475,0,0,0,57.329,20H48.476A1.475,1.475,0,0,0,47,21.476V49.511a1.475,1.475,0,0,0,1.476,1.476ZM49.951,22.951h5.9V48.035h-5.9Z" transform="translate(21.399 8.56)"/>
      <path id="Trazado_728183" data-name="Trazado 728183" d="M46.329,51.937A1.475,1.475,0,0,0,47.8,50.462V19.476A1.475,1.475,0,0,0,46.329,18H37.476A1.475,1.475,0,0,0,36,19.476V50.462a1.475,1.475,0,0,0,1.476,1.476ZM38.951,20.951h5.9V48.986h-5.9Z" transform="translate(16.168 7.609)"/>
      <path id="Trazado_728184" data-name="Trazado 728184" d="M36,43H68.462v2.951H36Z" transform="translate(16.168 19.497)"/>
      <path id="Trazado_728185" data-name="Trazado 728185" d="M32.919,25.182a1.478,1.478,0,0,0,.792-.23l15.617-9.939,15.548,5.654a1.477,1.477,0,0,0,1.656-.465l3.776-4.717,3.107,2.072a1.475,1.475,0,0,0,2.294-1.228V7.476a1.476,1.476,0,0,0-1.942-1.4L64.915,9.026a1.475,1.475,0,0,0-.351,2.628l3.282,2.188-2.953,3.689L49.655,11.991a1.482,1.482,0,0,0-1.3.142l-15.7,9.989-11.189-2.8-.714,2.863,11.8,2.951a1.47,1.47,0,0,0,.357.044Zm39.84-15.66v4.049l-4.049-2.7Z" transform="translate(8.92 1.902)"/>
    </g>
  </g>
</svg>
