<svg xmlns="http://www.w3.org/2000/svg" width="93" height="93" viewBox="0 0 93 93">
  <g id="Grupo_961124" data-name="Grupo 961124" transform="translate(-316 -4827)">
    <circle id="Elipse_6773" data-name="Elipse 6773" cx="46.5" cy="46.5" r="46.5" transform="translate(316 4827)" fill="#f3f9ff"/>
    <g id="documentos-oficiales" transform="translate(335.987 4843)">
      <g id="Grupo_961098" data-name="Grupo 961098" transform="translate(1.22 1.207)">
        <path id="Trazado_727993" data-name="Trazado 727993" d="M19.669,10l-9.656,9.656V69.382H54.549V10Z" transform="translate(-10.013 -10)" fill="#eefaff"/>
        <path id="Trazado_727994" data-name="Trazado 727994" d="M372.709,215.363a4.857,4.857,0,0,1-1.514,7.875,46.66,46.66,0,0,0-10.5,7.5l-.7.7h0l-3.414-3.414.7-.7c2.291-2.3,6.263-7.53,7.56-10.461A4.848,4.848,0,0,1,372.709,215.363Z" transform="translate(-314.754 -189.319)" fill="#ffda8f"/>
        <path id="Trazado_727995" data-name="Trazado 727995" d="M276.368,302.293a4.828,4.828,0,0,1,0,6.828l-1.707,1.707-17.069-17.069,1.707-1.707a4.826,4.826,0,0,1,6.828,0Z" transform="translate(-227.712 -256.766)" fill="#34bc85"/>
        <path id="Trazado_727996" data-name="Trazado 727996" d="M136.013,136h24.5v4.828h-24.5Z" transform="translate(-120.806 -120.793)" fill="#badc61"/>
        <circle id="Elipse_6765" data-name="Elipse 6765" cx="4.828" cy="4.828" r="4.828" transform="translate(22.449 44.174)" fill="#feb12e"/>
        <path id="Trazado_727997" data-name="Trazado 727997" d="M50.013,136h10.38v4.828H50.013Z" transform="translate(-45.185 -120.793)" fill="#feb12e"/>
      </g>
      <g id="Grupo_961099" data-name="Grupo 961099" transform="translate(0.013 0)">
        <circle id="Elipse_6766" data-name="Elipse 6766" cx="1.207" cy="1.207" r="1.207" transform="translate(24.863 39.346)"/>
        <path id="Trazado_727998" data-name="Trazado 727998" d="M40.013,127.207v4.828a1.207,1.207,0,0,0,1.207,1.207H76.1a1.207,1.207,0,0,0,1.207-1.207v-4.828A1.207,1.207,0,0,0,76.1,126H41.22A1.207,1.207,0,0,0,40.013,127.207Zm12.794,1.207H74.894v2.414H52.807Zm-10.38,0h7.966v2.414H42.427Z" transform="translate(-35.185 -110.793)"/>
        <path id="Trazado_727999" data-name="Trazado 727999" d="M41.22,208.414H76.1a1.207,1.207,0,1,0,0-2.414H41.22a1.207,1.207,0,1,0,0,2.414Z" transform="translate(-35.185 -181.137)"/>
        <path id="Trazado_728000" data-name="Trazado 728000" d="M41.22,248.414H76.1a1.207,1.207,0,1,0,0-2.414H41.22a1.207,1.207,0,1,0,0,2.414Z" transform="translate(-35.185 -216.309)"/>
        <path id="Trazado_728001" data-name="Trazado 728001" d="M41.22,288.414H61.255a1.207,1.207,0,1,0,0-2.414H41.22a1.207,1.207,0,1,0,0,2.414Z" transform="translate(-35.185 -251.481)"/>
        <path id="Trazado_728002" data-name="Trazado 728002" d="M41.22,328.414H56.427a1.207,1.207,0,1,0,0-2.414H41.22a1.207,1.207,0,1,0,0,2.414Z" transform="translate(-35.185 -286.654)"/>
        <path id="Trazado_728003" data-name="Trazado 728003" d="M127.22,373.242h6.156a6.035,6.035,0,1,0,0-2.414H127.22a1.207,1.207,0,0,0,0,2.414Zm12.069-2.414h-3.413a3.621,3.621,0,1,1,0,2.414h3.413a1.207,1.207,0,0,0,0-2.414Z" transform="translate(-110.806 -321.826)"/>
        <path id="Trazado_728004" data-name="Trazado 728004" d="M312.634,62.414a1.207,1.207,0,1,0,0-2.414H310.22a1.207,1.207,0,1,0,0,2.414Z" transform="translate(-271.718 -52.758)"/>
        <path id="Trazado_728005" data-name="Trazado 728005" d="M252.634,62.414a1.207,1.207,0,1,0,0-2.414H250.22a1.207,1.207,0,1,0,0,2.414Z" transform="translate(-218.96 -52.758)"/>
        <path id="Trazado_728006" data-name="Trazado 728006" d="M192.634,62.414a1.207,1.207,0,1,0,0-2.414H190.22a1.207,1.207,0,1,0,0,2.414Z" transform="translate(-166.202 -52.758)"/>
        <circle id="Elipse_6767" data-name="Elipse 6767" cx="1.207" cy="1.207" r="1.207" transform="translate(22.449 59.382)"/>
        <path id="Trazado_728007" data-name="Trazado 728007" d="M1.22,61.8H18.238a1.207,1.207,0,1,0,0-2.414H2.427V12.069h8.449a1.207,1.207,0,0,0,1.207-1.207V2.414H44.549V36.528c-.547.648-1.059,1.216-1.5,1.67L40.489,35.64a6.03,6.03,0,0,0-8.535,0l-1.707,1.707a1.207,1.207,0,0,0,0,1.707l14.3,14.3v6.027H29.1a1.207,1.207,0,1,0,0,2.414H45.756a1.207,1.207,0,0,0,1.207-1.207v-4.82l.354.354a1.207,1.207,0,0,0,1.707,0l1.707-1.707a6.032,6.032,0,0,0,0-8.535l-2.558-2.558a46.146,46.146,0,0,1,9.971-7.089,6.049,6.049,0,1,0-7.934-7.979,32.286,32.286,0,0,1-3.246,5.2V1.207A1.207,1.207,0,0,0,45.756,0H10.875a1.22,1.22,0,0,0-.853.354L.367,10.009a1.213,1.213,0,0,0-.354.853V60.588A1.207,1.207,0,0,0,1.22,61.8Zm47.8-14.208a3.619,3.619,0,0,1,0,5.121l-.853.853L32.808,38.2l.853-.853a3.617,3.617,0,0,1,5.121,0ZM46.7,37.717a44.862,44.862,0,0,0,5.715-8.486,3.635,3.635,0,1,1,4.763,4.789,47.557,47.557,0,0,0-10.715,7.595l-1.71-1.71c.572-.585,1.241-1.336,1.947-2.188ZM9.669,4.121V9.655H4.134Z" transform="translate(-0.013 0)"/>
      </g>
    </g>
  </g>
</svg>
