<svg xmlns="http://www.w3.org/2000/svg" width="93" height="93" viewBox="0 0 93 93">
  <g id="Grupo_961125" data-name="Grupo 961125" transform="translate(5205 6874)">
    <circle id="Elipse_6774" data-name="Elipse 6774" cx="46.5" cy="46.5" r="46.5" transform="translate(-5205 -6874)" fill="#f3f9ff"/>
    <g id="ruta" transform="translate(-5189 -6859)">
      <path id="Trazado_728008" data-name="Trazado 728008" d="M382.177,7.441a6.218,6.218,0,0,1,6.178,6.249c0,2.368-2.924,6.805-4.746,9.338-.824,1.153-1.431,1.915-1.431,1.915s-.731-.927-1.689-2.275C378.656,20.095,376,15.956,376,13.691A6.218,6.218,0,0,1,382.177,7.441Zm0,0" transform="translate(-327.609 -6.484)" fill="#ffb400"/>
      <path id="Trazado_728009" data-name="Trazado 728009" d="M391.207,126.194c1.822.391,3.089,1.3,3.089,2.358,0,1.421-2.306,2.574-5.148,2.574S384,129.973,384,128.552c0-1.061,1.266-1.967,3.089-2.358l.371-.432c.958,1.348,1.689,2.275,1.689,2.275s.607-.762,1.431-1.915Zm0,0" transform="translate(-334.58 -109.576)" fill="#d56a00"/>
      <path id="Trazado_728010" data-name="Trazado 728010" d="M29.621,423.441v4.118H8v-4.118Zm0,0" transform="translate(-6.97 -368.945)" fill="#00b366"/>
      <path id="Trazado_728011" data-name="Trazado 728011" d="M138.059,375.441l3.089,6.177H136v-6.177Zm0,0" transform="translate(-118.497 -327.123)" fill="#b0e6ff"/>
      <path id="Trazado_728012" data-name="Trazado 728012" d="M104,375.441h4.118v6.177H104Zm0,0" transform="translate(-90.615 -327.123)" fill="#3c83f7"/>
      <path id="Trazado_728013" data-name="Trazado 728013" d="M14.177,335.441h6.177v11.325H8V335.441Zm0,0" transform="translate(-6.97 -292.271)" fill="#ffb400"/>
      <path id="Trazado_728014" data-name="Trazado 728014" d="M60.592,126.8H77.58a13.9,13.9,0,1,0,0-27.8H53.9a5.663,5.663,0,0,1,0-11.325H81.183V79.441H53.9a13.9,13.9,0,1,0,0,27.8H77.58a5.663,5.663,0,0,1,0,11.325H60.592Zm0,0" transform="translate(-34.852 -69.217)" fill="#d6d1ce"/>
      <path id="Trazado_728015" data-name="Trazado 728015" d="M412.118,41.5a2.059,2.059,0,1,1-2.059-2.059A2.059,2.059,0,0,1,412.118,41.5Zm0,0" transform="translate(-355.491 -34.365)" fill="#d56a00"/>
      <path id="Trazado_728016" data-name="Trazado 728016" d="M125.148,442.015a2.574,2.574,0,1,1-2.574-2.574A2.574,2.574,0,0,1,125.148,442.015Zm0,0" transform="translate(-104.556 -382.886)"/>
      <path id="Trazado_728017" data-name="Trazado 728017" d="M29.148,442.015a2.574,2.574,0,1,1-2.574-2.574A2.574,2.574,0,0,1,29.148,442.015Zm0,0" transform="translate(-20.911 -382.886)"/>
      <path id="Trazado_728018" data-name="Trazado 728018" d="M369.03,18.975c0,2.059,2.655,3.6,6.177,3.6s6.177-1.544,6.177-3.6c0-1.354-1.133-2.5-3-3.121,2.009-2.935,4.034-6.441,4.034-8.647a7.207,7.207,0,0,0-14.414,0c0,2.235,2.059,5.776,4.033,8.648C370.162,16.472,369.03,17.622,369.03,18.975Zm10.3,0c0,.544-1.564,1.544-4.118,1.544s-4.118-1-4.118-1.544c0-.343.705-1,2.21-1.339.637.871,1.076,1.428,1.1,1.457a1.026,1.026,0,0,0,1.614.009s.452-.569,1.1-1.461C378.62,17.979,379.325,18.632,379.325,18.975ZM375.207,1.987a5.19,5.19,0,0,1,5.148,5.22c0,1.51-1.7,4.776-4.555,8.74-.215.3-.412.574-.592.813-.246-.332-.536-.73-.85-1.171-2.692-3.78-4.3-6.909-4.3-8.382A5.19,5.19,0,0,1,375.207,1.987Zm0,0" transform="translate(-320.639)"/>
      <path id="Trazado_728019" data-name="Trazado 728019" d="M1.03,344.944H22.651a1.03,1.03,0,0,0,1.03-1.03V339.8a1.031,1.031,0,0,0-.108-.46l-3.089-6.177a1.029,1.029,0,0,0-.921-.569H14.414v-4.118a1.03,1.03,0,0,0-1.03-1.03H1.03A1.03,1.03,0,0,0,0,328.471v15.444A1.03,1.03,0,0,0,1.03,344.944Zm19.955-6.177H18.532v-4.118h.393Zm-4.511-4.118v4.118H14.414v-4.118Zm1.03,6.177h4.118v2.059H2.059v-2.059ZM2.059,329.5H6.177v5.148H8.237V329.5h4.118v9.266H2.059Zm0,0" transform="translate(0 -285.301)"/>
      <path id="Trazado_728020" data-name="Trazado 728020" d="M109.385,176.625h16.988a14.929,14.929,0,1,0,0-29.858h-23.68a4.633,4.633,0,1,1,0-9.266h27.284v-2.059H102.692a6.692,6.692,0,1,0,0,13.385h23.68a12.87,12.87,0,1,1,0,25.74H109.385Zm0,0" transform="translate(-83.645 -118.01)"/>
      <path id="Trazado_728021" data-name="Trazado 728021" d="M46.929,101.3h23.68a4.633,4.633,0,0,1,0,9.266H53.621v2.059H70.609a6.692,6.692,0,1,0,0-13.385H46.929a12.87,12.87,0,0,1,0-25.74H74.213V71.441H46.929a14.929,14.929,0,0,0,0,29.858Zm0,0" transform="translate(-27.882 -62.247)"/>
      <path id="Trazado_728022" data-name="Trazado 728022" d="M200,407.441h2.059V409.5H200Zm0,0" transform="translate(-174.26 -355.005)"/>
      <path id="Trazado_728023" data-name="Trazado 728023" d="M400.608,326.57a10.886,10.886,0,0,0,0-4.434l-2.014.425a8.807,8.807,0,0,1,0,3.589Zm0,0" transform="translate(-347.296 -280.678)"/>
      <path id="Trazado_728024" data-name="Trazado 728024" d="M74.491,216.789a8.693,8.693,0,0,1-2.042-2.949l-1.9.8a10.755,10.755,0,0,0,2.524,3.646Zm0,0" transform="translate(-61.471 -186.319)"/>
      <path id="Trazado_728025" data-name="Trazado 728025" d="M218.09,103.441h4.041V105.5H218.09Zm0,0" transform="translate(-190.022 -90.129)"/>
      <path id="Trazado_728026" data-name="Trazado 728026" d="M155.289,103.441h4.041V105.5h-4.041Zm0,0" transform="translate(-135.304 -90.129)"/>
      <path id="Trazado_728027" data-name="Trazado 728027" d="M120.164,251.441l-.7,1.936a10.772,10.772,0,0,0,3.672.637h.652v-2.059h-.652A8.727,8.727,0,0,1,120.164,251.441Zm0,0" transform="translate(-104.09 -219.081)"/>
      <path id="Trazado_728028" data-name="Trazado 728028" d="M314.358,408.945,314.1,406.9a8.794,8.794,0,0,1-1.1.069h-2.807v2.059H313A10.887,10.887,0,0,0,314.358,408.945Zm0,0" transform="translate(-270.271 -354.535)"/>
      <path id="Trazado_728029" data-name="Trazado 728029" d="M247.4,407.441h4.041V409.5H247.4Zm0,0" transform="translate(-215.559 -355.005)"/>
      <path id="Trazado_728030" data-name="Trazado 728030" d="M367.872,267.273l-1.055,1.772a8.725,8.725,0,0,1,2.641,2.432l1.675-1.2A10.783,10.783,0,0,0,367.872,267.273Zm0,0" transform="translate(-319.608 -232.876)"/>
      <path id="Trazado_728031" data-name="Trazado 728031" d="M310.063,255.441V257.5h2.823a8.877,8.877,0,0,1,1.089.067l.249-2.044a10.914,10.914,0,0,0-1.338-.082Zm0,0" transform="translate(-270.158 -222.567)"/>
      <path id="Trazado_728032" data-name="Trazado 728032" d="M184.465,255.441h4.041V257.5h-4.041Zm0,0" transform="translate(-160.725 -222.567)"/>
      <path id="Trazado_728033" data-name="Trazado 728033" d="M247.258,255.441H251.3V257.5h-4.042Zm0,0" transform="translate(-215.436 -222.567)"/>
      <path id="Trazado_728034" data-name="Trazado 728034" d="M64.979,152.594a10.729,10.729,0,0,0-.971,4.324l2.059.03a8.662,8.662,0,0,1,.785-3.5Zm0,0" transform="translate(-55.77 -132.955)"/>
      <path id="Trazado_728035" data-name="Trazado 728035" d="M366.91,381.34l1.061,1.766a10.772,10.772,0,0,0,3.255-3.008l-1.678-1.194A8.731,8.731,0,0,1,366.91,381.34Zm0,0" transform="translate(-319.69 -330.139)"/>
      <path id="Trazado_728036" data-name="Trazado 728036" d="M96.477,109.565l-.641-1.956A10.746,10.746,0,0,0,92,109.828l1.373,1.535A8.676,8.676,0,0,1,96.477,109.565Zm0,0" transform="translate(-80.16 -93.76)"/>
      <path id="Trazado_728037" data-name="Trazado 728037" d="M280.879,103.441h4.042V105.5h-4.042Zm0,0" transform="translate(-244.73 -90.129)"/>
      <path id="Trazado_728038" data-name="Trazado 728038" d="M344,103.441h2.059V105.5H344Zm0,0" transform="translate(-299.728 -90.129)"/>
      <path id="Trazado_728039" data-name="Trazado 728039" d="M406.177,34.53a3.089,3.089,0,1,0-3.089,3.089A3.089,3.089,0,0,0,406.177,34.53Zm-4.118,0a1.03,1.03,0,1,1,1.03,1.03A1.03,1.03,0,0,1,402.059,34.53Zm0,0" transform="translate(-348.521 -27.395)"/>
    </g>
  </g>
</svg>
