<svg xmlns="http://www.w3.org/2000/svg" width="93" height="93" viewBox="0 0 93 93">
  <g id="Grupo_961126" data-name="Grupo 961126" transform="translate(5205 6484)">
    <circle id="Elipse_6780" data-name="Elipse 6780" cx="46.5" cy="46.5" r="46.5" transform="translate(-5205 -6484)" fill="#f3f9ff"/>
    <g id="fecha-tope" transform="translate(-5185.812 -6466.401)">
      <path id="Trazado_728040" data-name="Trazado 728040" d="M58.636,145.066v18.881A11.57,11.57,0,0,0,41.3,173.966a11.046,11.046,0,0,0,.376,2.89H11.433a2.89,2.89,0,0,1-2.89-2.89v-28.9Zm0,0" transform="translate(-7.568 -128.69)" fill="#e5e8eb"/>
      <path id="Trazado_728041" data-name="Trazado 728041" d="M58.636,54.089V61.8H8.543V54.089a2.89,2.89,0,0,1,2.89-2.89H16.25v2.89a1.932,1.932,0,0,0,1.927,1.927h.963a1.932,1.932,0,0,0,1.927-1.927V51.2H30.7v2.89a1.932,1.932,0,0,0,1.927,1.927h.963a1.932,1.932,0,0,0,1.927-1.927V51.2h10.6v2.89a1.932,1.932,0,0,0,1.927,1.927H49a1.932,1.932,0,0,0,1.927-1.927V51.2h4.817A2.89,2.89,0,0,1,58.636,54.089Zm0,0" transform="translate(-7.568 -45.419)" fill="#feb12e"/>
      <path id="Trazado_728042" data-name="Trazado 728042" d="M78.739,8.535H79.7a1.927,1.927,0,0,1,1.927,1.927v5.78A1.927,1.927,0,0,1,79.7,18.168h-.963a1.927,1.927,0,0,1-1.927-1.927v-5.78A1.927,1.927,0,0,1,78.739,8.535Zm0,0" transform="translate(-68.131 -7.572)" fill="#e5e8eb"/>
      <path id="Trazado_728043" data-name="Trazado 728043" d="M206.739,8.535h.963a1.927,1.927,0,0,1,1.927,1.927v5.78a1.927,1.927,0,0,1-1.927,1.927h-.963a1.927,1.927,0,0,1-1.927-1.927v-5.78A1.927,1.927,0,0,1,206.739,8.535Zm0,0" transform="translate(-181.681 -7.572)" fill="#e5e8eb"/>
      <path id="Trazado_728044" data-name="Trazado 728044" d="M343.27,8.535h.964a1.927,1.927,0,0,1,1.927,1.927v5.78a1.927,1.927,0,0,1-1.927,1.927h-.964a1.927,1.927,0,0,1-1.927-1.927v-5.78A1.927,1.927,0,0,1,343.27,8.535Zm0,0" transform="translate(-302.799 -7.572)" fill="#e5e8eb"/>
      <path id="Trazado_728045" data-name="Trazado 728045" d="M321.8,310.227a11.56,11.56,0,0,1-22.561,3.555c-.067-.221-.135-.443-.183-.665a11.046,11.046,0,0,1-.376-2.89,11.56,11.56,0,0,1,23.119,0Zm0,0" transform="translate(-264.951 -264.951)" fill="#badc61"/>
      <g id="Grupo_961104" data-name="Grupo 961104" transform="translate(8.682 21.193)">
        <path id="Trazado_728046" data-name="Trazado 728046" d="M77.776,187.734h5.78a.963.963,0,0,1,.964.963v5.78a.963.963,0,0,1-.964.964h-5.78a.963.963,0,0,1-.963-.964V188.7A.963.963,0,0,1,77.776,187.734Zm0,0" transform="translate(-76.813 -187.734)" fill="#34bc85"/>
        <path id="Trazado_728047" data-name="Trazado 728047" d="M197.241,187.734h5.78a.963.963,0,0,1,.963.963v5.78a.963.963,0,0,1-.963.964h-5.78a.963.963,0,0,1-.964-.964V188.7A.963.963,0,0,1,197.241,187.734Zm0,0" transform="translate(-182.791 -187.734)" fill="#34bc85"/>
        <path id="Trazado_728048" data-name="Trazado 728048" d="M77.776,290.133h5.78a.963.963,0,0,1,.964.964v5.78a.963.963,0,0,1-.964.963h-5.78a.963.963,0,0,1-.963-.963V291.1A.963.963,0,0,1,77.776,290.133Zm0,0" transform="translate(-76.813 -278.573)" fill="#34bc85"/>
        <path id="Trazado_728049" data-name="Trazado 728049" d="M197.241,290.133h5.78a.963.963,0,0,1,.963.964v5.78a.963.963,0,0,1-.963.963h-5.78a.963.963,0,0,1-.964-.963V291.1A.963.963,0,0,1,197.241,290.133Zm0,0" transform="translate(-182.791 -278.573)" fill="#34bc85"/>
        <path id="Trazado_728050" data-name="Trazado 728050" d="M316.709,187.734h5.78a.963.963,0,0,1,.964.963v5.78a.963.963,0,0,1-.964.964h-5.78a.963.963,0,0,1-.963-.964V188.7A.963.963,0,0,1,316.709,187.734Zm0,0" transform="translate(-288.773 -187.734)" fill="#34bc85"/>
      </g>
      <path id="Trazado_728051" data-name="Trazado 728051" d="M52.031,34.724V8.67a3.853,3.853,0,0,0-3.853-3.853H44.324V2.89A2.89,2.89,0,0,0,41.435,0h-.964a2.89,2.89,0,0,0-2.89,2.89V4.817h-8.67V2.89A2.89,2.89,0,0,0,26.021,0h-.963a2.89,2.89,0,0,0-2.89,2.89V4.817H14.462V2.89A2.89,2.89,0,0,0,11.571,0h-.963a2.89,2.89,0,0,0-2.89,2.89V4.817H3.865A3.853,3.853,0,0,0,.012,8.67V21.193a.963.963,0,0,0,1.927,0V17.34H50.1V33.709c-.031-.012-.064-.022-.1-.034-.2-.082-.4-.154-.609-.224-.1-.035-.193-.073-.3-.1-.306-.1-.616-.185-.928-.258A12.465,12.465,0,0,0,32.855,46.7c.011.1.02.193.034.289.01.071.015.145.025.215H3.865a1.927,1.927,0,0,1-1.927-1.927v-18.3a.963.963,0,1,0-1.927,0v18.3a3.853,3.853,0,0,0,3.853,3.853H33.371a12.523,12.523,0,0,0,20.266,5.482.963.963,0,1,0-1.285-1.435A10.6,10.6,0,0,1,35.2,48.553c-.06-.2-.12-.393-.175-.635a10.132,10.132,0,0,1-.338-2.641A10.609,10.609,0,0,1,47.736,34.963c.289.067.572.15.853.243a10.517,10.517,0,0,1,2,.887,10.623,10.623,0,0,1,4.695,12.716.963.963,0,0,0,1.815.642A12.535,12.535,0,0,0,52.031,34.724ZM39.508,2.89a.963.963,0,0,1,.963-.964h.964a.963.963,0,0,1,.963.964V8.67a.963.963,0,0,1-.963.963h-.964a.963.963,0,0,1-.963-.963Zm-15.413,0a.963.963,0,0,1,.964-.964h.963a.963.963,0,0,1,.964.964V8.67a.963.963,0,0,1-.964.963h-.963a.963.963,0,0,1-.964-.963Zm-14.45,0a.963.963,0,0,1,.964-.964h.963a.963.963,0,0,1,.964.964V8.67a.963.963,0,0,1-.964.963h-.963a.963.963,0,0,1-.964-.963ZM1.938,15.413V8.67A1.927,1.927,0,0,1,3.865,6.743H7.718V8.67a2.89,2.89,0,0,0,2.89,2.89h.963a2.89,2.89,0,0,0,2.89-2.89V6.743h7.706V8.67a2.89,2.89,0,0,0,2.89,2.89h.963a2.89,2.89,0,0,0,2.89-2.89V6.743h8.67V8.67a2.89,2.89,0,0,0,2.89,2.89h.964a2.89,2.89,0,0,0,2.89-2.89V6.743h3.854A1.927,1.927,0,0,1,50.1,8.67v6.743Zm0,0"/>
      <path id="Trazado_728052" data-name="Trazado 728052" d="M70.2,188.833h5.78a1.927,1.927,0,0,0,1.927-1.927v-5.78a1.927,1.927,0,0,0-1.927-1.927H70.2a1.927,1.927,0,0,0-1.927,1.927v5.78A1.927,1.927,0,0,0,70.2,188.833Zm0-7.707h5.78v5.78H70.2Zm0,0" transform="translate(-60.559 -158.97)"/>
      <path id="Trazado_728053" data-name="Trazado 728053" d="M189.673,188.833h5.78a1.927,1.927,0,0,0,1.927-1.927v-5.78a1.927,1.927,0,0,0-1.927-1.927h-5.78a1.927,1.927,0,0,0-1.927,1.927v5.78A1.927,1.927,0,0,0,189.673,188.833Zm0-7.707h5.78v5.78h-5.78Zm0,0" transform="translate(-166.541 -158.97)"/>
      <path id="Trazado_728054" data-name="Trazado 728054" d="M68.277,289.308a1.927,1.927,0,0,0,1.927,1.927h5.78a1.927,1.927,0,0,0,1.927-1.927v-5.78a1.927,1.927,0,0,0-1.927-1.927H70.2a1.927,1.927,0,0,0-1.927,1.927Zm1.927-5.78h5.78v5.78H70.2Zm0,0" transform="translate(-60.559 -249.812)"/>
      <path id="Trazado_728055" data-name="Trazado 728055" d="M187.746,289.308a1.927,1.927,0,0,0,1.927,1.927h5.78a1.927,1.927,0,0,0,1.927-1.927v-5.78a1.927,1.927,0,0,0-1.927-1.927h-5.78a1.927,1.927,0,0,0-1.927,1.927Zm1.927-5.78h5.78v5.78h-5.78Zm0,0" transform="translate(-166.541 -249.812)"/>
      <path id="Trazado_728056" data-name="Trazado 728056" d="M314.917,188.833a1.927,1.927,0,0,0,1.927-1.927v-5.78a1.927,1.927,0,0,0-1.927-1.927h-5.78a1.927,1.927,0,0,0-1.927,1.927v5.78a1.927,1.927,0,0,0,1.927,1.927Zm-5.78-7.707h5.78v5.78h-5.78Zm0,0" transform="translate(-272.52 -158.97)"/>
      <path id="Trazado_728057" data-name="Trazado 728057" d="M359.76,358.714l-6.292,6.923-1.915-2.107a.964.964,0,1,0-1.426,1.3l2.627,2.89a.963.963,0,0,0,1.427,0l7.005-7.706a.964.964,0,1,0-1.426-1.3Zm0,0" transform="translate(-310.368 -317.939)"/>
      <path id="Trazado_728058" data-name="Trazado 728058" d="M35.108,301.558a.963.963,0,0,0,.963-.963v-.964a.963.963,0,0,0-1.927,0v.964A.963.963,0,0,0,35.108,301.558Zm0,0" transform="translate(-30.28 -264.952)"/>
      <path id="Trazado_728059" data-name="Trazado 728059" d="M34.145,346.149a1.927,1.927,0,0,0,1.927,1.927h2.89a.963.963,0,0,0,0-1.927h-2.89V342.3a.963.963,0,1,0-1.927,0Zm0,0" transform="translate(-30.28 -302.799)"/>
      <path id="Trazado_728060" data-name="Trazado 728060" d="M103.374,384a.963.963,0,1,0,0,1.927h.963a.963.963,0,1,0,0-1.927Zm0,0" transform="translate(-90.839 -340.651)"/>
    </g>
  </g>
</svg>
