<svg xmlns="http://www.w3.org/2000/svg" width="93" height="93" viewBox="0 0 93 93">
  <g id="Grupo_961127" data-name="Grupo 961127" transform="translate(5205 6099)">
    <circle id="Elipse_6786" data-name="Elipse 6786" cx="46.5" cy="46.5" r="46.5" transform="translate(-5205 -6099)" fill="#f3f9ff"/>
    <g id="bolsa-de-basura" transform="translate(-5192 -6087)">
      <path id="Trazado_728061" data-name="Trazado 728061" d="M43.652,12.13A2.13,2.13,0,0,0,41.522,10H34.764A1.764,1.764,0,0,0,33,11.764V27.044h6.391a4.261,4.261,0,0,0,4.261-4.261H54.3V12.13Z" transform="translate(1.631 0.587)" fill="#f7d5b9"/>
      <path id="Trazado_728062" data-name="Trazado 728062" d="M51.609,64.413H15.391A6.391,6.391,0,0,1,9,58.022v-1.04A35.389,35.389,0,0,1,29.239,25h8.522A35.389,35.389,0,0,1,58,56.982v1.04a6.391,6.391,0,0,1-6.391,6.391Z" transform="translate(0.065 1.565)" fill="#34bc85"/>
      <path id="Trazado_728063" data-name="Trazado 728063" d="M24,2l4.261,7.457h8.522L41.044,2,36.783,4.13,32.522,2,28.261,4.13Z" transform="translate(1.044 0.065)" fill="#feb12e"/>
      <path id="Trazado_728064" data-name="Trazado 728064" d="M28,10h8.522V28.109H28Z" transform="translate(1.305 0.587)" fill="#5f646e"/>
      <g id="Grupo_961107" data-name="Grupo 961107" transform="translate(27.174 9.522)">
        <path id="Trazado_728065" data-name="Trazado 728065" d="M28.13,9a2.13,2.13,0,0,0,0,4.261h8.522V9Z" transform="translate(-26 -9)" fill="#efc8ab"/>
        <path id="Trazado_728066" data-name="Trazado 728066" d="M28.13,13a2.13,2.13,0,0,0,0,4.261h8.522V13Z" transform="translate(-26 -8.739)" fill="#efc8ab"/>
        <rect id="Rect치ngulo_340715" data-name="Rect치ngulo 340715" width="13" height="4" rx="2" transform="translate(-0.043 8.478)" fill="#efc8ab"/>
        <rect id="Rect치ngulo_340716" data-name="Rect치ngulo 340716" width="13" height="5" rx="2" transform="translate(-0.043 12.478)" fill="#efc8ab"/>
      </g>
      <path id="Trazado_728067" data-name="Trazado 728067" d="M43.652,12.261A4.261,4.261,0,0,0,39.391,8H36.452A3.452,3.452,0,0,0,33,11.452v5.336a1.864,1.864,0,1,0,3.728,0V12.261" transform="translate(1.631 0.457)" fill="#f7d5b9"/>
      <path id="Trazado_728068" data-name="Trazado 728068" d="M42.96,28.313a5.33,5.33,0,0,0,3.281-3.878h9.694A1.065,1.065,0,0,0,57,23.37V12.717a1.065,1.065,0,0,0-1.065-1.065H46.241a5.335,5.335,0,0,0-5.219-4.261H40.27l2.742-4.8a1.065,1.065,0,0,0-1.4-1.481L37.826,3,34.042,1.112a1.066,1.066,0,0,0-.953,0L29.3,3,25.52,1.112a1.065,1.065,0,0,0-1.4,1.481l3.6,6.3a3.159,3.159,0,0,0-.78,4.888,3.146,3.146,0,0,0,0,4.261,3.146,3.146,0,0,0,0,4.262,3.149,3.149,0,0,0,.032,4.3A36.6,36.6,0,0,0,8,58.548v1.04a7.465,7.465,0,0,0,7.457,7.457H51.674a7.465,7.465,0,0,0,7.457-7.457v-1.04A36.6,36.6,0,0,0,42.96,28.313ZM41.022,9.522a3.2,3.2,0,0,1,3.2,3.2,1.065,1.065,0,0,0,1.065,1.065H54.87V22.3H45.283a1.065,1.065,0,0,0-1.065,1.065,3.2,3.2,0,0,1-3.2,3.2h-.831a3.157,3.157,0,0,0,0-4.265,3.146,3.146,0,0,0-.788-4.876c0-.061.018-.118.018-.179V13.783a1.065,1.065,0,0,0-2.13,0v3.462a.8.8,0,0,1-1.6,0V11.909a2.39,2.39,0,0,1,2.386-2.387Zm-3.2,11.717H29.3a1.065,1.065,0,0,1,0-2.13h4.949a2.894,2.894,0,0,0,4.245.261,1.022,1.022,0,0,1,.393.8,1.067,1.067,0,0,1-1.065,1.065Zm1.065,3.2A1.067,1.067,0,0,1,37.826,25.5H29.3a1.065,1.065,0,0,1,0-2.13h8.522a1.067,1.067,0,0,1,1.065,1.065ZM29.3,14.848h4.261v2.13H29.3a1.065,1.065,0,0,1,0-2.13Zm-1.065-3.2A1.067,1.067,0,0,1,29.3,10.587h4.459c-.027.086-.039.177-.06.265s-.041.161-.056.245a4.483,4.483,0,0,0-.082.812v.809H29.3a1.067,1.067,0,0,1-1.065-1.065Zm-.525-7.061,1.114.557a1.066,1.066,0,0,0,.953,0l3.784-1.892L37.35,5.149a1.066,1.066,0,0,0,.953,0l1.114-.557L37.8,7.42a4.469,4.469,0,0,0-2.6,1.037H29.922ZM57,59.587a5.332,5.332,0,0,1-5.326,5.326H15.457a5.332,5.332,0,0,1-5.326-5.326v-1.04A34.472,34.472,0,0,1,29.563,27.631h8A34.472,34.472,0,0,1,57,58.548Z" transform="translate(0 0)"/>
      <path id="Trazado_728069" data-name="Trazado 728069" d="M27.142,42.983a1.066,1.066,0,0,0,1.455-.39l2.873-4.976a1.3,1.3,0,0,1,2.249,0l1.033,1.79-.917.53,3.68,2.124V37.812l-.917.53-1.033-1.79a3.43,3.43,0,0,0-5.94,0l-2.873,4.976a1.065,1.065,0,0,0,.39,1.455Z" transform="translate(1.214 2.207)"/>
      <path id="Trazado_728070" data-name="Trazado 728070" d="M32.028,50.4H26.282a1.3,1.3,0,0,1-1.125-1.948l1.033-1.79.917.53V42.938l-3.68,2.124.917.53-1.033,1.79a3.43,3.43,0,0,0,2.97,5.144h5.745a1.065,1.065,0,0,0,0-2.13Z" transform="translate(0.969 2.735)"/>
      <path id="Trazado_728071" data-name="Trazado 728071" d="M38.834,42.471a1.065,1.065,0,1,0-1.845,1.065l2.872,4.976a1.3,1.3,0,0,1-1.124,1.948H36.67V49.4L32.99,51.525,36.67,53.65V52.591h2.067a3.43,3.43,0,0,0,2.97-5.144Z" transform="translate(1.63 2.67)"/>
    </g>
  </g>
</svg>
