<svg xmlns="http://www.w3.org/2000/svg" width="93" height="93" viewBox="0 0 93 93">
  <g id="Grupo_961128" data-name="Grupo 961128" transform="translate(5205 5707)">
    <circle id="Elipse_6792" data-name="Elipse 6792" cx="46.5" cy="46.5" r="46.5" transform="translate(-5205 -5707)" fill="#f3f9ff"/>
    <g id="sello_1_" data-name="sello (1)" transform="translate(-5200.181 -5694)">
      <g id="Grupo_961122" data-name="Grupo 961122" transform="translate(20.107 0.926)">
        <g id="Grupo_961110" data-name="Grupo 961110" transform="translate(0)">
          <path id="Trazado_728072" data-name="Trazado 728072" d="M76.735,19.143V66.414a2.47,2.47,0,0,1-2.47,2.47H29.151a2.47,2.47,0,0,1-2.47-2.47V9.97a2.47,2.47,0,0,1,2.47-2.47h35.94a2.47,2.47,0,0,1,1.747.724L76.011,17.4A2.47,2.47,0,0,1,76.735,19.143Z" transform="translate(-26.681 -7.5)" fill="#eef5f6"/>
        </g>
        <g id="Grupo_961111" data-name="Grupo 961111">
          <path id="Trazado_728073" data-name="Trazado 728073" d="M30.816,66.414V9.97a2.47,2.47,0,0,1,2.47-2.47H29.151a2.47,2.47,0,0,0-2.47,2.47V66.414a2.47,2.47,0,0,0,2.47,2.47h4.135A2.47,2.47,0,0,1,30.816,66.414Z" transform="translate(-26.681 -7.5)" fill="#deecf1"/>
        </g>
        <g id="Grupo_961112" data-name="Grupo 961112" transform="translate(25.424 16.816)">
          <path id="Trazado_728074" data-name="Trazado 728074" d="M257.154,143.729a11.083,11.083,0,0,0-1.3-.078,10.991,10.991,0,0,0-10.517,14.284,1.019,1.019,0,0,1-.155.912l-1.5,2.013-.2-.151a5.148,5.148,0,0,0-3.116-1.033,5.3,5.3,0,0,0-4.2,2.16l-3.5,4.686a.617.617,0,0,0,.125.864l1.423,1.064a3.7,3.7,0,0,0,.783,5.138l8.584,6.418a3.678,3.678,0,0,0,2.218.737,3.723,3.723,0,0,0,2.931-1.44l1.423,1.064a.617.617,0,0,0,.864-.125l3.508-4.691a5.306,5.306,0,0,0,1.036-3.911,5.153,5.153,0,0,0-2.029-3.423l-.2-.151,1.513-2.024a.987.987,0,0,1,.8-.4h.2a10.886,10.886,0,0,0,1.328-.082V143.729Z" transform="translate(-232.524 -143.651)" fill="#deecf1"/>
        </g>
        <g id="Grupo_961113" data-name="Grupo 961113" transform="translate(39.434 0.225)">
          <path id="Trazado_728075" data-name="Trazado 728075" d="M355.855,18.992l-9.173-9.173a2.468,2.468,0,0,0-.724-.5v9.16a1.235,1.235,0,0,0,1.235,1.235h9.16A2.468,2.468,0,0,0,355.855,18.992Z" transform="translate(-345.958 -9.32)" fill="#deecf1"/>
        </g>
        <g id="Grupo_961114" data-name="Grupo 961114" transform="translate(20.012 44.279)">
          <path id="Trazado_728076" data-name="Trazado 728076" d="M207.546,371.94H189.331a.618.618,0,0,1-.618-.618v-4.7a.618.618,0,0,1,.618-.618h18.215Z" transform="translate(-188.713 -366.008)" fill="#34bc85"/>
        </g>
        <g id="Grupo_961115" data-name="Grupo 961115" transform="translate(26.424 44.279)">
          <path id="Trazado_728077" data-name="Trazado 728077" d="M253.049,366.008H240.628c0,.012,0,.023,0,.035a3.681,3.681,0,0,0,1.449,2.438l4.627,3.46h6.341Z" transform="translate(-240.628 -366.008)" fill="#34bc85"/>
        </g>
        <g id="Grupo_961116" data-name="Grupo 961116" transform="translate(36.411 19.904)">
          <path id="Trazado_728078" data-name="Trazado 728078" d="M340.144,181.3a7.915,7.915,0,1,0-13.891-2.372,4.1,4.1,0,0,1-.629,3.682l-4.138,5.535,4.692,3.508,4.138-5.535a4.1,4.1,0,0,1,3.354-1.645A7.9,7.9,0,0,0,340.144,181.3Z" transform="translate(-321.486 -168.65)" fill="#badc61"/>
        </g>
        <g id="Grupo_961117" data-name="Grupo 961117" transform="translate(36.411 19.904)">
          <path id="Trazado_728079" data-name="Trazado 728079" d="M328.011,180.239a7.914,7.914,0,0,1,11.361-9.305,7.9,7.9,0,0,0-11.78.722,7.9,7.9,0,0,0-1.337,7.27,4.1,4.1,0,0,1-.629,3.683l-4.138,5.535,1.757,1.313,4.138-5.535A4.1,4.1,0,0,0,328.011,180.239Z" transform="translate(-321.487 -168.651)" fill="#e8ffaa"/>
        </g>
        <g id="Grupo_961118" data-name="Grupo 961118" transform="translate(29.478 39.85)">
          <path id="Trazado_728080" data-name="Trazado 728080" d="M274.186,340.992l-8.584-6.418a.618.618,0,0,1-.125-.864l2.665-3.565,9.573,7.157-2.665,3.565A.617.617,0,0,1,274.186,340.992Z" transform="translate(-265.354 -330.145)" fill="#feb12e"/>
        </g>
        <g id="Grupo_961119" data-name="Grupo 961119" transform="translate(29.478 39.85)">
          <path id="Trazado_728081" data-name="Trazado 728081" d="M267.234,335.024l2.665-3.565-1.757-1.313-2.665,3.565a.618.618,0,0,0,.125.864l1.757,1.313A.618.618,0,0,1,267.234,335.024Z" transform="translate(-265.354 -330.146)" fill="#feb12e"/>
        </g>
        <g id="Grupo_961120" data-name="Grupo 961120" transform="translate(29.745 35.928)">
          <path id="Trazado_728082" data-name="Trazado 728082" d="M280.18,311.675l-12.416-9.283a.618.618,0,0,1-.125-.864l1.713-2.291a2.1,2.1,0,0,1,2.939-.424l10.042,7.508a2.1,2.1,0,0,1,.424,2.939l-1.713,2.291A.617.617,0,0,1,280.18,311.675Z" transform="translate(-267.517 -298.394)" fill="#badc61"/>
        </g>
        <g id="Grupo_961121" data-name="Grupo 961121" transform="translate(29.746 35.928)">
          <path id="Trazado_728083" data-name="Trazado 728083" d="M274.049,300.126l-1.757-1.313a2.1,2.1,0,0,0-2.939.424l-1.713,2.291a.617.617,0,0,0,.125.864l1.262.944,2.083-2.786A2.1,2.1,0,0,1,274.049,300.126Z" transform="translate(-267.517 -298.394)" fill="#badc61"/>
        </g>
      </g>
      <g id="Grupo_961123" data-name="Grupo 961123" transform="translate(19.181 0)">
        <path id="Trazado_728084" data-name="Trazado 728084" d="M20.107,28.938a.926.926,0,0,0,.926-.926V3.4a1.546,1.546,0,0,1,1.544-1.544h35.94c.033,0,.065,0,.1,0v8.454a2.164,2.164,0,0,0,2.161,2.161H69.23c0,.032,0,.064,0,.1v3.709a.926.926,0,0,0,1.853,0V12.57a3.375,3.375,0,0,0-.995-2.4L60.92.995A3.374,3.374,0,0,0,58.518,0H22.578a3.4,3.4,0,0,0-3.4,3.4V28.012a.926.926,0,0,0,.926.926Zm40.36-18.627V3.163l7.457,7.457H60.776A.309.309,0,0,1,60.468,10.311Z" transform="translate(-19.181 0)"/>
        <path id="Trazado_728085" data-name="Trazado 728085" d="M70.161,267.3a.926.926,0,0,0-.926.926V286.8a1.546,1.546,0,0,1-1.544,1.544H22.578a1.546,1.546,0,0,1-1.544-1.544V259.866a.926.926,0,1,0-1.853,0V286.8a3.4,3.4,0,0,0,3.4,3.4H67.691a3.4,3.4,0,0,0,3.4-3.4V268.225A.926.926,0,0,0,70.161,267.3Z" transform="translate(-19.181 -226.958)"/>
        <path id="Trazado_728086" data-name="Trazado 728086" d="M188.008,360.361a.926.926,0,1,0,0-1.853h-5.252a1.546,1.546,0,0,0-1.544,1.544v4.7a1.546,1.546,0,0,0,1.544,1.544h11.121a.926.926,0,1,0,0-1.853H183.065v-4.08Z" transform="translate(-161.2 -314.229)"/>
        <path id="Trazado_728087" data-name="Trazado 728087" d="M286.63,167.92a.926.926,0,1,0-1.8.43,6.987,6.987,0,0,1-6.917,8.611h-.082a5.043,5.043,0,0,0-4.029,2.018l-2.8,3.744-3.208-2.4,2.8-3.744a5.043,5.043,0,0,0,.771-4.514,6.988,6.988,0,0,1,10.579-7.882,7.1,7.1,0,0,1,1.15.971.926.926,0,0,0,1.34-1.279,8.955,8.955,0,0,0-1.451-1.226,8.84,8.84,0,0,0-13.387,9.969,3.185,3.185,0,0,1-.487,2.851l-2.8,3.744-1.933-1.445a3.03,3.03,0,0,0-4.236.612l-1.713,2.291a1.546,1.546,0,0,0,.312,2.161l.68.508-1.259,1.684a1.544,1.544,0,0,0,.312,2.161l8.584,6.418a1.546,1.546,0,0,0,2.161-.312l1.259-1.684.68.508a1.532,1.532,0,0,0,.921.308,1.556,1.556,0,0,0,.224-.016,1.534,1.534,0,0,0,1.016-.6l1.713-2.291a3.03,3.03,0,0,0-.611-4.236l-1.933-1.445,2.8-3.744a3.185,3.185,0,0,1,2.545-1.274h.052a8.84,8.84,0,0,0,8.749-10.894Zm-18.712,24.015-8.089-6.048,1.074-1.436,8.089,6.048Zm5.628-3.532-1.528,2.044L260.1,181.534l1.528-2.044a1.175,1.175,0,0,1,1.642-.237l10.042,7.508A1.175,1.175,0,0,1,273.546,188.4Z" transform="translate(-228.374 -141.238)"/>
        <path id="Trazado_728088" data-name="Trazado 728088" d="M108.071,119.631a.926.926,0,0,0-.926-.926H69.223a.926.926,0,1,0,0,1.853h37.921A.926.926,0,0,0,108.071,119.631Z" transform="translate(-62.231 -104.044)"/>
        <path id="Trazado_728089" data-name="Trazado 728089" d="M102.83,161.546a.926.926,0,0,0-.926-.926H69.223a.926.926,0,1,0,0,1.853H101.9A.926.926,0,0,0,102.83,161.546Z" transform="translate(-62.231 -140.782)"/>
        <path id="Trazado_728090" data-name="Trazado 728090" d="M99.568,202.535H69.223a.926.926,0,1,0,0,1.853H99.568a.926.926,0,1,0,0-1.853Z" transform="translate(-62.231 -177.52)"/>
        <path id="Trazado_728091" data-name="Trazado 728091" d="M100.495,245.375a.926.926,0,0,0-.926-.926H69.223a.926.926,0,1,0,0,1.853H99.568A.926.926,0,0,0,100.495,245.375Z" transform="translate(-62.231 -214.257)"/>
        <path id="Trazado_728092" data-name="Trazado 728092" d="M89.66,286.364H69.223a.926.926,0,1,0,0,1.853H89.66a.926.926,0,1,0,0-1.853Z" transform="translate(-62.231 -250.995)"/>
      </g>
    </g>
  </g>
</svg>
