<svg xmlns="http://www.w3.org/2000/svg" xmlns:xlink="http://www.w3.org/1999/xlink" width="636" height="95" viewBox="0 0 636 95">
  <defs>
    <filter id="Rect치ngulo_340685" x="0" y="0" width="636" height="95" filterUnits="userSpaceOnUse">
      <feOffset dy="3" input="SourceAlpha"/>
      <feGaussianBlur stdDeviation="3" result="blur"/>
      <feFlood flood-opacity="0.161"/>
      <feComposite operator="in" in2="blur"/>
      <feComposite in="SourceGraphic"/>
    </filter>
  </defs>
  <g id="Grupo_964511" data-name="Grupo 964511" transform="translate(-466 -4105)">
    <g transform="matrix(1, 0, 0, 1, 466, 4105)" filter="url(#Rect치ngulo_340685)">
      <rect id="Rect치ngulo_340685-2" data-name="Rect치ngulo 340685" width="618" height="77" rx="20" transform="translate(9 6)" fill="#fff"/>
    </g>
    <path id="Trazado_728220" data-name="Trazado 728220" d="M.928-11.484a2.811,2.811,0,0,1,.85-2.124A3.081,3.081,0,0,1,4-14.424a3.13,3.13,0,0,1,2.246.806,2.865,2.865,0,0,1,.85,2.183v.7a2.776,2.776,0,0,1-.85,2.119,3.114,3.114,0,0,1-2.227.8,3.134,3.134,0,0,1-2.241-.806,2.844,2.844,0,0,1-.854-2.173Zm1.875.752a1.316,1.316,0,0,0,.337.942,1.16,1.16,0,0,0,.884.356,1.106,1.106,0,0,0,.869-.361,1.4,1.4,0,0,0,.322-.967v-.723a1.37,1.37,0,0,0-.322-.947A1.13,1.13,0,0,0,4-12.793a1.133,1.133,0,0,0-.869.356,1.4,1.4,0,0,0-.332.991ZM7.725-3.486A2.775,2.775,0,0,1,8.584-5.61a3.124,3.124,0,0,1,2.227-.806,3.156,3.156,0,0,1,2.241.8,2.849,2.849,0,0,1,.854,2.192v.7a2.8,2.8,0,0,1-.84,2.114A3.1,3.1,0,0,1,10.83.2,3.132,3.132,0,0,1,8.574-.615a2.832,2.832,0,0,1-.85-2.148ZM9.6-2.725a1.305,1.305,0,0,0,.352.918,1.146,1.146,0,0,0,.879.381q1.191,0,1.191-1.318v-.742a1.327,1.327,0,0,0-.332-.942,1.144,1.144,0,0,0-.879-.356,1.144,1.144,0,0,0-.879.356,1.369,1.369,0,0,0-.332.972ZM4.58-1.064,3.2-1.807,10.146-12.92l1.377.742ZM20.645-5.371A6.19,6.19,0,0,1,21.8-9.282a3.644,3.644,0,0,1,3.018-1.479,3.665,3.665,0,0,1,2.939,1.27V-15h1.807V0H27.9l-.088-1.133A3.679,3.679,0,0,1,24.795.2a3.609,3.609,0,0,1-2.993-1.5,6.26,6.26,0,0,1-1.157-3.926Zm1.807.205a4.687,4.687,0,0,0,.742,2.813,2.4,2.4,0,0,0,2.051,1.016,2.636,2.636,0,0,0,2.51-1.543V-7.734a2.656,2.656,0,0,0-2.49-1.494A2.411,2.411,0,0,0,23.193-8.2,5.16,5.16,0,0,0,22.451-5.166ZM36.748.2a4.617,4.617,0,0,1-3.5-1.411A5.237,5.237,0,0,1,31.9-4.99v-.332a6.341,6.341,0,0,1,.6-2.808,4.685,4.685,0,0,1,1.68-1.934,4.223,4.223,0,0,1,2.339-.7,3.957,3.957,0,0,1,3.2,1.357,5.877,5.877,0,0,1,1.143,3.887v.752H33.711a3.756,3.756,0,0,0,.913,2.524,2.87,2.87,0,0,0,2.222.962,3.147,3.147,0,0,0,1.621-.391,4.073,4.073,0,0,0,1.162-1.035l1.1.859A4.437,4.437,0,0,1,36.748.2Zm-.225-9.473a2.41,2.41,0,0,0-1.836.8A3.868,3.868,0,0,0,33.77-6.25h5.293v-.137a3.441,3.441,0,0,0-.742-2.134A2.269,2.269,0,0,0,36.523-9.277Zm16.494.332a5.414,5.414,0,0,0-.889-.068A2.381,2.381,0,0,0,49.717-7.5V0H47.91V-10.566h1.758L49.7-9.346a2.813,2.813,0,0,1,2.52-1.416,1.846,1.846,0,0,1,.8.137ZM59.063.2a4.617,4.617,0,0,1-3.5-1.411A5.237,5.237,0,0,1,54.219-4.99v-.332a6.341,6.341,0,0,1,.6-2.808,4.685,4.685,0,0,1,1.68-1.934,4.223,4.223,0,0,1,2.339-.7,3.957,3.957,0,0,1,3.2,1.357,5.877,5.877,0,0,1,1.143,3.887v.752H56.025a3.756,3.756,0,0,0,.913,2.524,2.87,2.87,0,0,0,2.222.962,3.147,3.147,0,0,0,1.621-.391,4.073,4.073,0,0,0,1.162-1.035l1.1.859A4.437,4.437,0,0,1,59.063.2Zm-.225-9.473a2.41,2.41,0,0,0-1.836.8,3.868,3.868,0,0,0-.918,2.231h5.293v-.137a3.441,3.441,0,0,0-.742-2.134A2.269,2.269,0,0,0,58.838-9.277Zm6,3.906a6.19,6.19,0,0,1,1.152-3.911A3.644,3.644,0,0,1,69-10.762a3.665,3.665,0,0,1,2.939,1.27V-15H73.75V0H72.09L72-1.133A3.679,3.679,0,0,1,68.984.2a3.609,3.609,0,0,1-2.993-1.5,6.26,6.26,0,0,1-1.157-3.926Zm1.807.205a4.687,4.687,0,0,0,.742,2.813,2.4,2.4,0,0,0,2.051,1.016,2.636,2.636,0,0,0,2.51-1.543V-7.734a2.656,2.656,0,0,0-2.49-1.494A2.411,2.411,0,0,0,67.383-8.2,5.16,5.16,0,0,0,66.641-5.166ZM83.076-1.045A3.837,3.837,0,0,1,79.98.2a3.285,3.285,0,0,1-2.573-.981,4.248,4.248,0,0,1-.894-2.905v-6.875H78.32V-3.74q0,2.4,1.953,2.4a2.7,2.7,0,0,0,2.754-1.543v-7.686h1.807V0H83.115Zm8.74-.234a2.6,2.6,0,0,0,1.689-.586,2.061,2.061,0,0,0,.8-1.465h1.709A3.276,3.276,0,0,1,95.391-1.6,4.116,4.116,0,0,1,93.853-.293,4.438,4.438,0,0,1,91.816.2a4.353,4.353,0,0,1-3.433-1.44,5.737,5.737,0,0,1-1.274-3.94v-.3a6.361,6.361,0,0,1,.566-2.744A4.314,4.314,0,0,1,89.3-10.1a4.619,4.619,0,0,1,2.5-.664A4.238,4.238,0,0,1,94.761-9.7a3.8,3.8,0,0,1,1.255,2.764H94.307a2.49,2.49,0,0,0-.776-1.685,2.415,2.415,0,0,0-1.724-.659,2.529,2.529,0,0,0-2.134.991,4.655,4.655,0,0,0-.757,2.866v.342a4.562,4.562,0,0,0,.752,2.813A2.541,2.541,0,0,0,91.816-1.279Zm10.469,0a2.6,2.6,0,0,0,1.689-.586,2.061,2.061,0,0,0,.8-1.465h1.709a3.276,3.276,0,0,1-.625,1.729,4.116,4.116,0,0,1-1.538,1.309A4.438,4.438,0,0,1,102.285.2a4.353,4.353,0,0,1-3.433-1.44,5.737,5.737,0,0,1-1.274-3.94v-.3a6.361,6.361,0,0,1,.566-2.744A4.314,4.314,0,0,1,99.771-10.1a4.619,4.619,0,0,1,2.5-.664A4.238,4.238,0,0,1,105.229-9.7a3.8,3.8,0,0,1,1.255,2.764h-1.709A2.49,2.49,0,0,0,104-8.618a2.415,2.415,0,0,0-1.724-.659,2.529,2.529,0,0,0-2.134.991,4.655,4.655,0,0,0-.757,2.866v.342a4.562,4.562,0,0,0,.752,2.813A2.541,2.541,0,0,0,102.285-1.279ZM110.479,0h-1.807V-10.566h1.807Zm-1.953-13.369a1.078,1.078,0,0,1,.269-.742,1.008,1.008,0,0,1,.8-.3,1.024,1.024,0,0,1,.8.3,1.067,1.067,0,0,1,.273.742,1.032,1.032,0,0,1-.273.732,1.043,1.043,0,0,1-.8.293,1.026,1.026,0,0,1-.8-.293A1.043,1.043,0,0,1,108.525-13.369Zm4.365,7.988a6.241,6.241,0,0,1,.61-2.793,4.553,4.553,0,0,1,1.7-1.914,4.626,4.626,0,0,1,2.485-.674,4.456,4.456,0,0,1,3.491,1.494,5.748,5.748,0,0,1,1.333,3.975v.127a6.3,6.3,0,0,1-.591,2.769,4.486,4.486,0,0,1-1.689,1.909A4.679,4.679,0,0,1,117.705.2,4.445,4.445,0,0,1,114.224-1.3a5.719,5.719,0,0,1-1.333-3.955Zm1.816.215a4.52,4.52,0,0,0,.815,2.822,2.61,2.61,0,0,0,2.183,1.064,2.594,2.594,0,0,0,2.188-1.079,4.943,4.943,0,0,0,.811-3.022,4.513,4.513,0,0,0-.825-2.817,2.623,2.623,0,0,0-2.192-1.079,2.594,2.594,0,0,0-2.158,1.064A4.906,4.906,0,0,0,114.707-5.166Zm3.8-9.834h2.188l-2.617,2.871h-1.455Zm7.979,4.434.059,1.328a3.851,3.851,0,0,1,3.164-1.523q3.35,0,3.379,3.779V0h-1.807V-6.992a2.433,2.433,0,0,0-.522-1.689,2.094,2.094,0,0,0-1.6-.547,2.607,2.607,0,0,0-1.543.469,3.183,3.183,0,0,0-1.035,1.23V0h-1.807V-10.566Zm22.539,2.617h-8.145V-9.521h8.145Zm0,4.053h-8.145V-5.459h8.145Z" transform="translate(494 4157)" fill="#12263f"/>
    <path id="Trazado_728223" data-name="Trazado 728223" d="M6.289-8.77,9.7-14.219H11.9L7.412-7.168,12.012,0H9.785l-3.5-5.547L2.773,0H.557L5.166-7.168l-4.5-7.051h2.2ZM24.609,0H22.793V-12.041L19.15-10.7v-1.641l5.176-1.943h.283ZM38.818-6.064a8.263,8.263,0,0,1-1.084,4.717A3.855,3.855,0,0,1,34.346.2a3.883,3.883,0,0,1-3.369-1.509A7.843,7.843,0,0,1,29.844-5.82V-8.232a8.079,8.079,0,0,1,1.084-4.658,3.885,3.885,0,0,1,3.4-1.523,3.92,3.92,0,0,1,3.379,1.47,7.8,7.8,0,0,1,1.113,4.536ZM37.012-8.535a6.62,6.62,0,0,0-.645-3.345,2.218,2.218,0,0,0-2.041-1.05A2.189,2.189,0,0,0,32.3-11.885a6.464,6.464,0,0,0-.654,3.213v2.891a6.726,6.726,0,0,0,.669,3.4,2.214,2.214,0,0,0,2.026,1.1,2.184,2.184,0,0,0,1.987-1.035,6.483,6.483,0,0,0,.679-3.262ZM50.049-6.064a8.263,8.263,0,0,1-1.084,4.717A3.855,3.855,0,0,1,45.576.2a3.883,3.883,0,0,1-3.369-1.509A7.843,7.843,0,0,1,41.074-5.82V-8.232a8.079,8.079,0,0,1,1.084-4.658,3.885,3.885,0,0,1,3.4-1.523,3.92,3.92,0,0,1,3.379,1.47,7.8,7.8,0,0,1,1.113,4.536ZM48.242-8.535A6.62,6.62,0,0,0,47.6-11.88a2.218,2.218,0,0,0-2.041-1.05,2.189,2.189,0,0,0-2.021,1.045,6.464,6.464,0,0,0-.654,3.213v2.891a6.726,6.726,0,0,0,.669,3.4,2.214,2.214,0,0,0,2.026,1.1,2.184,2.184,0,0,0,1.987-1.035,6.483,6.483,0,0,0,.679-3.262Z" transform="translate(960 4160)" fill="#12263f"/>
    <g id="Grupo_964483" data-name="Grupo 964483" transform="translate(72 61)">
      <path id="Trazado_728221" data-name="Trazado 728221" d="M12.109-4.512A5.231,5.231,0,0,1,10.444-1.03,5.457,5.457,0,0,1,6.719.2,5.01,5.01,0,0,1,2.681-1.611,7.268,7.268,0,0,1,1.162-6.445V-7.812A8.1,8.1,0,0,1,1.87-11.3a5.288,5.288,0,0,1,2.007-2.31,5.588,5.588,0,0,1,3.008-.806,5.138,5.138,0,0,1,3.633,1.265,5.294,5.294,0,0,1,1.592,3.5H10.225a4.067,4.067,0,0,0-1.06-2.461,3.212,3.212,0,0,0-2.28-.762,3.356,3.356,0,0,0-2.817,1.328A6.093,6.093,0,0,0,3.047-7.764v1.377a6.263,6.263,0,0,0,.967,3.682A3.125,3.125,0,0,0,6.719-1.338a3.608,3.608,0,0,0,2.4-.708,3.929,3.929,0,0,0,1.108-2.466ZM20.908,0a3.8,3.8,0,0,1-.254-1.113A4.031,4.031,0,0,1,17.646.2a3.73,3.73,0,0,1-2.563-.884,2.859,2.859,0,0,1-1-2.241,2.987,2.987,0,0,1,1.255-2.563,5.916,5.916,0,0,1,3.53-.913h1.758v-.83a2.029,2.029,0,0,0-.566-1.509,2.276,2.276,0,0,0-1.67-.562,2.634,2.634,0,0,0-1.621.488,1.439,1.439,0,0,0-.654,1.182H14.3a2.493,2.493,0,0,1,.562-1.528,3.832,3.832,0,0,1,1.523-1.167,5.125,5.125,0,0,1,2.114-.43,4.177,4.177,0,0,1,2.861.913,3.294,3.294,0,0,1,1.074,2.515v4.863A5.946,5.946,0,0,0,22.8-.156V0Zm-3-1.377a3.175,3.175,0,0,0,1.611-.439,2.658,2.658,0,0,0,1.1-1.143V-5.127H19.209q-3.32,0-3.32,1.943a1.645,1.645,0,0,0,.566,1.328A2.177,2.177,0,0,0,17.91-1.377Zm9.063-9.189.059,1.328A3.85,3.85,0,0,1,30.2-10.762q3.35,0,3.379,3.779V0H31.768V-6.992a2.432,2.432,0,0,0-.522-1.689,2.094,2.094,0,0,0-1.6-.547,2.607,2.607,0,0,0-1.543.469,3.183,3.183,0,0,0-1.035,1.23V0H25.264V-10.566ZM38.75-13.125v2.559h1.973v1.4H38.75v6.553a1.464,1.464,0,0,0,.264.952,1.11,1.11,0,0,0,.9.317,4.374,4.374,0,0,0,.859-.117V0a5.238,5.238,0,0,1-1.387.2,2.25,2.25,0,0,1-1.826-.732,3.147,3.147,0,0,1-.615-2.08V-9.17H35.02v-1.4h1.924v-2.559ZM42.871-.947a1.131,1.131,0,0,1,.278-.781,1.061,1.061,0,0,1,.835-.312,1.092,1.092,0,0,1,.845.313,1.109,1.109,0,0,1,.288.781,1.048,1.048,0,0,1-.288.752,1.112,1.112,0,0,1-.845.3,1.079,1.079,0,0,1-.835-.3A1.069,1.069,0,0,1,42.871-.947Zm15.674-4.8h-3.34V0H53.32V-14.219h4.707a5.571,5.571,0,0,1,3.7,1.094,3.935,3.935,0,0,1,1.294,3.184A3.828,3.828,0,0,1,62.3-7.627a4.285,4.285,0,0,1-2,1.475l3.34,6.035V0H61.631Zm-3.34-1.533h2.881a3.253,3.253,0,0,0,2.222-.723,2.442,2.442,0,0,0,.825-1.934,2.571,2.571,0,0,0-.786-2.021,3.333,3.333,0,0,0-2.271-.713H55.205Zm14.629.947a8.817,8.817,0,0,1-3.511-1.7,3.256,3.256,0,0,1-1.1-2.5,3.439,3.439,0,0,1,1.343-2.778,5.337,5.337,0,0,1,3.491-1.1,5.825,5.825,0,0,1,2.612.566,4.3,4.3,0,0,1,1.777,1.563,4,4,0,0,1,.63,2.178H73.193a2.586,2.586,0,0,0-.82-2.026,3.343,3.343,0,0,0-2.314-.737,3.42,3.42,0,0,0-2.163.61,2.035,2.035,0,0,0-.776,1.694,1.831,1.831,0,0,0,.737,1.47A7.238,7.238,0,0,0,70.366-8,11.623,11.623,0,0,1,73.14-6.9a4.209,4.209,0,0,1,1.484,1.4,3.577,3.577,0,0,1,.483,1.885A3.322,3.322,0,0,1,73.76-.845,5.746,5.746,0,0,1,70.156.2a6.683,6.683,0,0,1-2.734-.562A4.6,4.6,0,0,1,65.464-1.9a3.754,3.754,0,0,1-.688-2.217H66.66a2.449,2.449,0,0,0,.952,2.036,4.009,4.009,0,0,0,2.544.747,3.685,3.685,0,0,0,2.275-.605,1.967,1.967,0,0,0,.791-1.65A1.931,1.931,0,0,0,72.49-5.21,8.444,8.444,0,0,0,69.834-6.338ZM90.313-3.711H84.355L83.018,0H81.084l5.43-14.219h1.641L93.594,0H91.67ZM84.922-5.254h4.834L87.334-11.9Zm12.012-5.312.059,1.328a3.85,3.85,0,0,1,3.164-1.523q3.35,0,3.379,3.779V0h-1.807V-6.992a2.432,2.432,0,0,0-.522-1.689,2.094,2.094,0,0,0-1.6-.547,2.607,2.607,0,0,0-1.543.469,3.183,3.183,0,0,0-1.035,1.23V0H95.225V-10.566Zm5.977-4.121a2.428,2.428,0,0,1-.6,1.709,1.951,1.951,0,0,1-1.5.654,2.2,2.2,0,0,1-.693-.1,3.741,3.741,0,0,1-.767-.4,3.32,3.32,0,0,0-.684-.366,1.673,1.673,0,0,0-.483-.063.9.9,0,0,0-.684.308,1.115,1.115,0,0,0-.283.786l-1.211-.068a2.549,2.549,0,0,1,.591-1.729,1.9,1.9,0,0,1,1.5-.684,1.821,1.821,0,0,1,.615.1,4.484,4.484,0,0,1,.742.381,4.367,4.367,0,0,0,.718.371,1.649,1.649,0,0,0,.552.088.874.874,0,0,0,.7-.332,1.165,1.165,0,0,0,.278-.771Zm2.871,9.307a6.241,6.241,0,0,1,.61-2.793,4.553,4.553,0,0,1,1.7-1.914,4.626,4.626,0,0,1,2.485-.674,4.456,4.456,0,0,1,3.491,1.494A5.748,5.748,0,0,1,115.4-5.293v.127A6.3,6.3,0,0,1,114.81-2.4,4.486,4.486,0,0,1,113.12-.488,4.679,4.679,0,0,1,110.6.2,4.445,4.445,0,0,1,107.114-1.3a5.719,5.719,0,0,1-1.333-3.955Zm1.816.215a4.52,4.52,0,0,0,.815,2.822A2.61,2.61,0,0,0,110.6-1.279a2.594,2.594,0,0,0,2.188-1.079,4.943,4.943,0,0,0,.811-3.022,4.513,4.513,0,0,0-.825-2.817,2.623,2.623,0,0,0-2.192-1.079,2.594,2.594,0,0,0-2.158,1.064A4.906,4.906,0,0,0,107.6-5.166ZM128.369,0h-1.816V-12.041L122.91-10.7v-1.641l5.176-1.943h.283Zm14.189-5.3h-4.766V-6.777h4.766Zm17.451.791a5.231,5.231,0,0,1-1.665,3.481A5.457,5.457,0,0,1,154.619.2a5.01,5.01,0,0,1-4.038-1.807,7.268,7.268,0,0,1-1.519-4.834V-7.812a8.1,8.1,0,0,1,.708-3.486,5.288,5.288,0,0,1,2.007-2.31,5.588,5.588,0,0,1,3.008-.806,5.138,5.138,0,0,1,3.633,1.265,5.294,5.294,0,0,1,1.592,3.5h-1.885a4.067,4.067,0,0,0-1.06-2.461,3.212,3.212,0,0,0-2.28-.762,3.356,3.356,0,0,0-2.817,1.328,6.093,6.093,0,0,0-1.021,3.779v1.377a6.263,6.263,0,0,0,.967,3.682,3.125,3.125,0,0,0,2.705,1.367,3.608,3.608,0,0,0,2.4-.708,3.929,3.929,0,0,0,1.108-2.466ZM168.809,0a3.8,3.8,0,0,1-.254-1.113A4.031,4.031,0,0,1,165.547.2a3.73,3.73,0,0,1-2.563-.884,2.859,2.859,0,0,1-1-2.241,2.987,2.987,0,0,1,1.255-2.563,5.916,5.916,0,0,1,3.53-.913h1.758v-.83a2.029,2.029,0,0,0-.566-1.509,2.276,2.276,0,0,0-1.67-.562,2.634,2.634,0,0,0-1.621.488,1.439,1.439,0,0,0-.654,1.182H162.2a2.493,2.493,0,0,1,.562-1.528,3.832,3.832,0,0,1,1.523-1.167,5.125,5.125,0,0,1,2.114-.43,4.177,4.177,0,0,1,2.861.913,3.294,3.294,0,0,1,1.074,2.515v4.863A5.946,5.946,0,0,0,170.7-.156V0Zm-3-1.377a3.175,3.175,0,0,0,1.611-.439,2.658,2.658,0,0,0,1.1-1.143V-5.127h-1.416q-3.32,0-3.32,1.943a1.645,1.645,0,0,0,.566,1.328A2.177,2.177,0,0,0,165.811-1.377Zm9.063-9.189.059,1.328a3.851,3.851,0,0,1,3.164-1.523q3.35,0,3.379,3.779V0h-1.807V-6.992a2.433,2.433,0,0,0-.522-1.689,2.094,2.094,0,0,0-1.6-.547,2.607,2.607,0,0,0-1.543.469,3.183,3.183,0,0,0-1.035,1.23V0h-1.807V-10.566Zm11.777-2.559v2.559h1.973v1.4H186.65v6.553a1.464,1.464,0,0,0,.264.952,1.11,1.11,0,0,0,.9.317,4.374,4.374,0,0,0,.859-.117V0a5.238,5.238,0,0,1-1.387.2,2.25,2.25,0,0,1-1.826-.732,3.147,3.147,0,0,1-.615-2.08V-9.17H182.92v-1.4h1.924v-2.559ZM190.771-.947a1.131,1.131,0,0,1,.278-.781,1.061,1.061,0,0,1,.835-.312,1.092,1.092,0,0,1,.845.313,1.109,1.109,0,0,1,.288.781,1.048,1.048,0,0,1-.288.752,1.112,1.112,0,0,1-.845.3,1.079,1.079,0,0,1-.835-.3A1.069,1.069,0,0,1,190.771-.947Zm15.674-4.8h-3.34V0h-1.885V-14.219h4.707a5.571,5.571,0,0,1,3.7,1.094,3.935,3.935,0,0,1,1.294,3.184,3.828,3.828,0,0,1-.718,2.314,4.285,4.285,0,0,1-2,1.475l3.34,6.035V0h-2.012Zm-3.34-1.533h2.881a3.253,3.253,0,0,0,2.222-.723,2.442,2.442,0,0,0,.825-1.934,2.571,2.571,0,0,0-.786-2.021,3.333,3.333,0,0,0-2.271-.713h-2.871Zm14.629.947a8.817,8.817,0,0,1-3.511-1.7,3.256,3.256,0,0,1-1.1-2.5,3.439,3.439,0,0,1,1.343-2.778,5.337,5.337,0,0,1,3.491-1.1,5.825,5.825,0,0,1,2.612.566,4.3,4.3,0,0,1,1.777,1.563,4,4,0,0,1,.63,2.178h-1.885a2.586,2.586,0,0,0-.82-2.026,3.343,3.343,0,0,0-2.314-.737,3.42,3.42,0,0,0-2.163.61,2.035,2.035,0,0,0-.776,1.694,1.831,1.831,0,0,0,.737,1.47,7.238,7.238,0,0,0,2.51,1.1,11.622,11.622,0,0,1,2.773,1.1,4.209,4.209,0,0,1,1.484,1.4,3.577,3.577,0,0,1,.483,1.885A3.322,3.322,0,0,1,221.66-.845a5.746,5.746,0,0,1-3.6,1.04,6.683,6.683,0,0,1-2.734-.562A4.6,4.6,0,0,1,213.364-1.9a3.754,3.754,0,0,1-.688-2.217h1.885a2.449,2.449,0,0,0,.952,2.036,4.009,4.009,0,0,0,2.544.747,3.685,3.685,0,0,0,2.275-.605,1.967,1.967,0,0,0,.791-1.65,1.931,1.931,0,0,0-.732-1.616A8.444,8.444,0,0,0,217.734-6.338Zm20.479,2.627h-5.957L230.918,0h-1.934l5.43-14.219h1.641L241.494,0H239.57Zm-5.391-1.543h4.834l-2.422-6.65Zm12.012-5.312.059,1.328a3.851,3.851,0,0,1,3.164-1.523q3.35,0,3.379,3.779V0h-1.807V-6.992a2.433,2.433,0,0,0-.522-1.689,2.094,2.094,0,0,0-1.6-.547,2.607,2.607,0,0,0-1.543.469,3.183,3.183,0,0,0-1.035,1.23V0h-1.807V-10.566Zm5.977-4.121a2.428,2.428,0,0,1-.6,1.709,1.951,1.951,0,0,1-1.5.654,2.2,2.2,0,0,1-.693-.1,3.741,3.741,0,0,1-.767-.4,3.32,3.32,0,0,0-.684-.366,1.673,1.673,0,0,0-.483-.063.9.9,0,0,0-.684.308,1.115,1.115,0,0,0-.283.786l-1.211-.068a2.549,2.549,0,0,1,.591-1.729,1.9,1.9,0,0,1,1.5-.684,1.821,1.821,0,0,1,.615.1,4.484,4.484,0,0,1,.742.381,4.367,4.367,0,0,0,.718.371,1.649,1.649,0,0,0,.552.088.874.874,0,0,0,.7-.332,1.165,1.165,0,0,0,.278-.771Zm2.871,9.307a6.241,6.241,0,0,1,.61-2.793,4.553,4.553,0,0,1,1.7-1.914,4.626,4.626,0,0,1,2.485-.674,4.456,4.456,0,0,1,3.491,1.494A5.748,5.748,0,0,1,263.3-5.293v.127A6.3,6.3,0,0,1,262.71-2.4a4.486,4.486,0,0,1-1.689,1.909A4.679,4.679,0,0,1,258.5.2,4.445,4.445,0,0,1,255.015-1.3a5.719,5.719,0,0,1-1.333-3.955Zm1.816.215a4.52,4.52,0,0,0,.815,2.822A2.61,2.61,0,0,0,258.5-1.279a2.594,2.594,0,0,0,2.188-1.079,4.943,4.943,0,0,0,.811-3.022,4.512,4.512,0,0,0-.825-2.817,2.623,2.623,0,0,0-2.192-1.079,2.594,2.594,0,0,0-2.158,1.064A4.906,4.906,0,0,0,255.5-5.166Zm23.75-.9a8.263,8.263,0,0,1-1.084,4.717A3.855,3.855,0,0,1,274.775.2a3.883,3.883,0,0,1-3.369-1.509,7.843,7.843,0,0,1-1.133-4.507V-8.232a8.079,8.079,0,0,1,1.084-4.658,3.885,3.885,0,0,1,3.4-1.523,3.92,3.92,0,0,1,3.379,1.47,7.8,7.8,0,0,1,1.113,4.536Zm-1.807-2.471a6.62,6.62,0,0,0-.645-3.345,2.218,2.218,0,0,0-2.041-1.05,2.189,2.189,0,0,0-2.021,1.045,6.464,6.464,0,0,0-.654,3.213v2.891a6.726,6.726,0,0,0,.669,3.4,2.214,2.214,0,0,0,2.026,1.1,2.184,2.184,0,0,0,1.987-1.035,6.483,6.483,0,0,0,.679-3.262Z" transform="translate(591 4085)" fill="#12263f"/>
      <path id="Trazado_728222" data-name="Trazado 728222" d="M12.109-4.512A5.231,5.231,0,0,1,10.444-1.03,5.457,5.457,0,0,1,6.719.2,5.01,5.01,0,0,1,2.681-1.611,7.268,7.268,0,0,1,1.162-6.445V-7.812A8.1,8.1,0,0,1,1.87-11.3a5.288,5.288,0,0,1,2.007-2.31,5.588,5.588,0,0,1,3.008-.806,5.138,5.138,0,0,1,3.633,1.265,5.294,5.294,0,0,1,1.592,3.5H10.225a4.067,4.067,0,0,0-1.06-2.461,3.212,3.212,0,0,0-2.28-.762,3.356,3.356,0,0,0-2.817,1.328A6.093,6.093,0,0,0,3.047-7.764v1.377a6.263,6.263,0,0,0,.967,3.682A3.125,3.125,0,0,0,6.719-1.338a3.608,3.608,0,0,0,2.4-.708,3.929,3.929,0,0,0,1.108-2.466ZM20.908,0a3.8,3.8,0,0,1-.254-1.113A4.031,4.031,0,0,1,17.646.2a3.73,3.73,0,0,1-2.563-.884,2.859,2.859,0,0,1-1-2.241,2.987,2.987,0,0,1,1.255-2.563,5.916,5.916,0,0,1,3.53-.913h1.758v-.83a2.029,2.029,0,0,0-.566-1.509,2.276,2.276,0,0,0-1.67-.562,2.634,2.634,0,0,0-1.621.488,1.439,1.439,0,0,0-.654,1.182H14.3a2.493,2.493,0,0,1,.562-1.528,3.832,3.832,0,0,1,1.523-1.167,5.125,5.125,0,0,1,2.114-.43,4.177,4.177,0,0,1,2.861.913,3.294,3.294,0,0,1,1.074,2.515v4.863A5.946,5.946,0,0,0,22.8-.156V0Zm-3-1.377a3.175,3.175,0,0,0,1.611-.439,2.658,2.658,0,0,0,1.1-1.143V-5.127H19.209q-3.32,0-3.32,1.943a1.645,1.645,0,0,0,.566,1.328A2.177,2.177,0,0,0,17.91-1.377Zm9.063-9.189.059,1.328A3.85,3.85,0,0,1,30.2-10.762q3.35,0,3.379,3.779V0H31.768V-6.992a2.432,2.432,0,0,0-.522-1.689,2.094,2.094,0,0,0-1.6-.547,2.607,2.607,0,0,0-1.543.469,3.183,3.183,0,0,0-1.035,1.23V0H25.264V-10.566ZM38.75-13.125v2.559h1.973v1.4H38.75v6.553a1.464,1.464,0,0,0,.264.952,1.11,1.11,0,0,0,.9.317,4.374,4.374,0,0,0,.859-.117V0a5.238,5.238,0,0,1-1.387.2,2.25,2.25,0,0,1-1.826-.732,3.147,3.147,0,0,1-.615-2.08V-9.17H35.02v-1.4h1.924v-2.559ZM42.871-.947a1.131,1.131,0,0,1,.278-.781,1.061,1.061,0,0,1,.835-.312,1.092,1.092,0,0,1,.845.313,1.109,1.109,0,0,1,.288.781,1.048,1.048,0,0,1-.288.752,1.112,1.112,0,0,1-.845.3,1.079,1.079,0,0,1-.835-.3A1.069,1.069,0,0,1,42.871-.947Zm15.674-4.8h-3.34V0H53.32V-14.219h4.707a5.571,5.571,0,0,1,3.7,1.094,3.935,3.935,0,0,1,1.294,3.184A3.828,3.828,0,0,1,62.3-7.627a4.285,4.285,0,0,1-2,1.475l3.34,6.035V0H61.631Zm-3.34-1.533h2.881a3.253,3.253,0,0,0,2.222-.723,2.442,2.442,0,0,0,.825-1.934,2.571,2.571,0,0,0-.786-2.021,3.333,3.333,0,0,0-2.271-.713H55.205Zm14.629.947a8.817,8.817,0,0,1-3.511-1.7,3.256,3.256,0,0,1-1.1-2.5,3.439,3.439,0,0,1,1.343-2.778,5.337,5.337,0,0,1,3.491-1.1,5.825,5.825,0,0,1,2.612.566,4.3,4.3,0,0,1,1.777,1.563,4,4,0,0,1,.63,2.178H73.193a2.586,2.586,0,0,0-.82-2.026,3.343,3.343,0,0,0-2.314-.737,3.42,3.42,0,0,0-2.163.61,2.035,2.035,0,0,0-.776,1.694,1.831,1.831,0,0,0,.737,1.47A7.238,7.238,0,0,0,70.366-8,11.623,11.623,0,0,1,73.14-6.9a4.209,4.209,0,0,1,1.484,1.4,3.577,3.577,0,0,1,.483,1.885A3.322,3.322,0,0,1,73.76-.845,5.746,5.746,0,0,1,70.156.2a6.683,6.683,0,0,1-2.734-.562A4.6,4.6,0,0,1,65.464-1.9a3.754,3.754,0,0,1-.688-2.217H66.66a2.449,2.449,0,0,0,.952,2.036,4.009,4.009,0,0,0,2.544.747,3.685,3.685,0,0,0,2.275-.605,1.967,1.967,0,0,0,.791-1.65A1.931,1.931,0,0,0,72.49-5.21,8.444,8.444,0,0,0,69.834-6.338ZM90.313-3.711H84.355L83.018,0H81.084l5.43-14.219h1.641L93.594,0H91.67ZM84.922-5.254h4.834L87.334-11.9Zm12.012-5.312.059,1.328a3.85,3.85,0,0,1,3.164-1.523q3.35,0,3.379,3.779V0h-1.807V-6.992a2.432,2.432,0,0,0-.522-1.689,2.094,2.094,0,0,0-1.6-.547,2.607,2.607,0,0,0-1.543.469,3.183,3.183,0,0,0-1.035,1.23V0H95.225V-10.566Zm5.977-4.121a2.428,2.428,0,0,1-.6,1.709,1.951,1.951,0,0,1-1.5.654,2.2,2.2,0,0,1-.693-.1,3.741,3.741,0,0,1-.767-.4,3.32,3.32,0,0,0-.684-.366,1.673,1.673,0,0,0-.483-.063.9.9,0,0,0-.684.308,1.115,1.115,0,0,0-.283.786l-1.211-.068a2.549,2.549,0,0,1,.591-1.729,1.9,1.9,0,0,1,1.5-.684,1.821,1.821,0,0,1,.615.1,4.484,4.484,0,0,1,.742.381,4.367,4.367,0,0,0,.718.371,1.649,1.649,0,0,0,.552.088.874.874,0,0,0,.7-.332,1.165,1.165,0,0,0,.278-.771Zm2.871,9.307a6.241,6.241,0,0,1,.61-2.793,4.553,4.553,0,0,1,1.7-1.914,4.626,4.626,0,0,1,2.485-.674,4.456,4.456,0,0,1,3.491,1.494A5.748,5.748,0,0,1,115.4-5.293v.127A6.3,6.3,0,0,1,114.81-2.4,4.486,4.486,0,0,1,113.12-.488,4.679,4.679,0,0,1,110.6.2,4.445,4.445,0,0,1,107.114-1.3a5.719,5.719,0,0,1-1.333-3.955Zm1.816.215a4.52,4.52,0,0,0,.815,2.822A2.61,2.61,0,0,0,110.6-1.279a2.594,2.594,0,0,0,2.188-1.079,4.943,4.943,0,0,0,.811-3.022,4.513,4.513,0,0,0-.825-2.817,2.623,2.623,0,0,0-2.192-1.079,2.594,2.594,0,0,0-2.158,1.064A4.906,4.906,0,0,0,107.6-5.166ZM128.369,0h-1.816V-12.041L122.91-10.7v-1.641l5.176-1.943h.283Z" transform="translate(665 4113)" fill="#12263f"/>
      <path id="Trazado_727950" data-name="Trazado 727950" d="M-1659-7649h284.5" transform="translate(2247.5 11741)" fill="none" stroke="#12263f" stroke-width="2"/>
    </g>
  </g>
</svg>
