<svg xmlns="http://www.w3.org/2000/svg" width="75.604" height="74.651" viewBox="0 0 75.604 74.651">
  <g id="lista-de-quehaceres" transform="translate(0 -3.225)">
    <g id="Grupo_961131" data-name="Grupo 961131" transform="translate(1.108 4.333)">
      <path id="Trazado_728093" data-name="Trazado 728093" d="M271.149,28.331V15.595a4.868,4.868,0,0,1,4.868-4.868H300.73a4.868,4.868,0,0,1,4.868,4.868V39.463a4.868,4.868,0,0,1-4.868,4.868H287.149a6.084,6.084,0,0,1-4.3-1.782l-9.915-9.915A6.084,6.084,0,0,1,271.149,28.331Z" transform="translate(-232.209 -10.727)" fill="#ffe07d"/>
      <path id="Trazado_728094" data-name="Trazado 728094" d="M271.148,123.918v-1.039a3.56,3.56,0,0,0,3.56,3.56h5.052a4.867,4.867,0,0,1,4.867,4.867v5.052a3.56,3.56,0,0,0,3.56,3.56h-1.039a6.089,6.089,0,0,1-4.3-1.782l-9.915-9.915A6.089,6.089,0,0,1,271.148,123.918Z" transform="translate(-232.208 -106.315)" fill="#f1cb86"/>
      <path id="Trazado_728095" data-name="Trazado 728095" d="M271.149,291.249V278.513a4.868,4.868,0,0,1,4.868-4.868H300.73a4.868,4.868,0,0,1,4.868,4.868v23.868a4.868,4.868,0,0,1-4.868,4.868H287.149a6.084,6.084,0,0,1-4.3-1.782l-9.915-9.915A6.084,6.084,0,0,1,271.149,291.249Z" transform="translate(-232.209 -234.813)" fill="#e28086"/>
      <path id="Trazado_728096" data-name="Trazado 728096" d="M271.148,386.836V385.8a3.56,3.56,0,0,0,3.56,3.56h5.052a4.867,4.867,0,0,1,4.867,4.867v5.052a3.56,3.56,0,0,0,3.56,3.56h-1.039a6.089,6.089,0,0,1-4.3-1.782l-9.915-9.915A6.089,6.089,0,0,1,271.148,386.836Z" transform="translate(-232.208 -330.401)" fill="#dd636e"/>
      <path id="Trazado_728097" data-name="Trazado 728097" d="M7.5,28.331V15.595a4.868,4.868,0,0,1,4.868-4.868H37.082a4.868,4.868,0,0,1,4.868,4.868V39.463a4.868,4.868,0,0,1-4.868,4.868H23.5a6.084,6.084,0,0,1-4.3-1.782L9.283,32.633a6.084,6.084,0,0,1-1.782-4.3Z" transform="translate(-7.501 -10.727)" fill="#f9f6f9"/>
      <path id="Trazado_728098" data-name="Trazado 728098" d="M7.5,123.918v-1.039a3.56,3.56,0,0,0,3.56,3.56h5.052a4.867,4.867,0,0,1,4.867,4.867v5.052a3.56,3.56,0,0,0,3.56,3.56H23.5a6.089,6.089,0,0,1-4.3-1.782l-9.915-9.915A6.089,6.089,0,0,1,7.5,123.918Z" transform="translate(-7.5 -106.315)" fill="#dddaec"/>
      <g id="Grupo_961129" data-name="Grupo 961129" transform="translate(13.879 5.608)">
        <path id="Trazado_728099" data-name="Trazado 728099" d="M108.207,63.585a2.522,2.522,0,0,1-1.992-.977L102,57.17a2.521,2.521,0,0,1,3.986-3.09l1.893,2.441,3.693-6.54a2.521,2.521,0,0,1,4.391,2.48L110.4,62.3a2.521,2.521,0,0,1-2.012,1.275Q108.3,63.585,108.207,63.585Z" transform="translate(-101.469 -48.699)" fill="#a2e19f"/>
      </g>
      <g id="Grupo_961130" data-name="Grupo 961130" transform="translate(55.247 7.1)">
        <path id="Trazado_728100" data-name="Trazado 728100" d="M391.962,65.487l2.206-2.206a2.626,2.626,0,1,0-3.713-3.713l-2.206,2.206-2.206-2.206a2.626,2.626,0,0,0-3.713,3.713l2.206,2.206-2.206,2.206a2.626,2.626,0,0,0,3.713,3.713l2.206-2.206,2.206,2.206a2.626,2.626,0,1,0,3.713-3.713Z" transform="translate(-381.56 -58.799)" fill="#e28086"/>
      </g>
    </g>
    <g id="Grupo_961132" data-name="Grupo 961132" transform="translate(0 3.225)">
      <path id="Trazado_728101" data-name="Trazado 728101" d="M275.666,36.938a7.341,7.341,0,0,0,.694.608,7.136,7.136,0,0,0,4.392,1.5h13.582a5.982,5.982,0,0,0,5.974-5.976V9.2a5.982,5.982,0,0,0-5.974-5.976h-3.072a1.108,1.108,0,0,0,0,2.215h3.072a3.764,3.764,0,0,1,3.759,3.76V33.068a3.764,3.764,0,0,1-3.759,3.76H281.791a2.455,2.455,0,0,1-2.452-2.452V29.324a5.982,5.982,0,0,0-5.975-5.975h-5.052A2.455,2.455,0,0,1,265.86,20.9s0-.006,0-.009V9.2a3.765,3.765,0,0,1,3.76-3.76h17.24a1.108,1.108,0,1,0,0-2.215H269.62A5.982,5.982,0,0,0,263.644,9.2V21.937a7.136,7.136,0,0,0,1.973,4.945c.045.047,10.049,10.056,10.049,10.056Zm-2.3-11.373a3.764,3.764,0,0,1,3.76,3.76v5.052a4.672,4.672,0,0,0,.106.991l-9.909-9.908a4.674,4.674,0,0,0,.991.106h5.052Z" transform="translate(-224.705 -3.225)"/>
      <path id="Trazado_728102" data-name="Trazado 728102" d="M294.336,266.145H269.623a5.982,5.982,0,0,0-5.975,5.975v12.735a7.246,7.246,0,0,0,.178,1.594,7.13,7.13,0,0,0,1.706,3.26c.072.079.146.157.222.233l9.915,9.915c.056.056.114.11.172.164a7.141,7.141,0,0,0,4.914,1.943h13.581a5.982,5.982,0,0,0,5.975-5.975V272.12A5.982,5.982,0,0,0,294.336,266.145Zm-17.1,32.142-9.909-9.909a4.667,4.667,0,0,0,.991.106h5.052a3.764,3.764,0,0,1,3.76,3.76V297.3A4.654,4.654,0,0,0,277.232,298.287Zm20.864-2.3a3.764,3.764,0,0,1-3.76,3.76H281.794a2.455,2.455,0,0,1-2.452-2.452v-5.052a5.982,5.982,0,0,0-5.975-5.975h-5.052a2.455,2.455,0,0,1-2.452-2.446v-11.7a3.764,3.764,0,0,1,3.76-3.76h24.713a3.764,3.764,0,0,1,3.76,3.76v23.868Z" transform="translate(-224.708 -227.313)"/>
      <path id="Trazado_728103" data-name="Trazado 728103" d="M30.689,3.225H5.976A5.982,5.982,0,0,0,0,9.2V21.936a7.138,7.138,0,0,0,2.036,5.013c.024.024.046.05.07.074l9.915,9.915a7.145,7.145,0,0,0,4.813,2.1c.091,0,2.136.007,2.136.007a1.108,1.108,0,0,0,0-2.215h-.824a2.455,2.455,0,0,1-2.452-2.452V29.324a5.982,5.982,0,0,0-5.975-5.975H4.668a2.455,2.455,0,0,1-2.452-2.441V9.2a3.765,3.765,0,0,1,3.76-3.76H30.689a3.765,3.765,0,0,1,3.76,3.76V33.068a3.765,3.765,0,0,1-3.76,3.76H23.4a1.108,1.108,0,1,0,0,2.215h7.29a5.982,5.982,0,0,0,5.976-5.976V9.2a5.983,5.983,0,0,0-5.976-5.976ZM9.72,25.565a3.764,3.764,0,0,1,3.76,3.76v5.052a4.67,4.67,0,0,0,.106.99L3.676,25.459a4.667,4.667,0,0,0,.991.106Z" transform="translate(0 -3.225)"/>
      <path id="Trazado_728104" data-name="Trazado 728104" d="M104.982,56.463l5.558-9.842a3.629,3.629,0,0,0-6.32-3.569l-2.874,5.089-.872-1.125a3.629,3.629,0,0,0-5.736,4.447L98.954,56.9a3.654,3.654,0,0,0,2.868,1.405c.087,0,.175,0,.264-.01a3.621,3.621,0,0,0,2.9-1.835Zm-3.056-.375a1.424,1.424,0,0,1-1.221-.544l-4.216-5.438a1.414,1.414,0,0,1,2.234-1.732l1.893,2.441a1.108,1.108,0,0,0,1.84-.134l3.693-6.54a1.414,1.414,0,1,1,2.462,1.39l-5.558,9.842a1.41,1.41,0,0,1-1.127.715Z" transform="translate(-80.098 -35.598)"/>
      <path id="Trazado_728105" data-name="Trazado 728105" d="M388.569,52.4a3.738,3.738,0,0,0-5.28,0l-1.423,1.423L380.444,52.4a3.733,3.733,0,0,0-5.28,5.28l1.423,1.423-1.423,1.423a3.733,3.733,0,0,0,5.28,5.28l1.423-1.423,1.423,1.423a3.733,3.733,0,1,0,5.28-5.28L387.146,59.1l1.423-1.423A3.738,3.738,0,0,0,388.569,52.4ZM387,56.115,384.8,58.321a1.108,1.108,0,0,0,0,1.566L387,62.094a1.518,1.518,0,0,1-2.146,2.147l-2.206-2.206a1.108,1.108,0,0,0-1.567,0l-2.206,2.206a1.518,1.518,0,0,1-2.146-2.147l2.206-2.206a1.108,1.108,0,0,0,0-1.566l-2.206-2.206a1.518,1.518,0,1,1,2.146-2.147l2.206,2.206a1.108,1.108,0,0,0,1.567,0l2.206-2.206A1.518,1.518,0,1,1,387,56.115Z" transform="translate(-318.824 -44.209)"/>
      <path id="Trazado_728106" data-name="Trazado 728106" d="M361.784,312.608H344.734a1.108,1.108,0,1,0,0,2.215h17.051a1.108,1.108,0,1,0,0-2.215Z" transform="translate(-292.874 -266.914)"/>
      <path id="Trazado_728107" data-name="Trazado 728107" d="M356.111,350.155H344.734a1.108,1.108,0,0,0,0,2.215h11.378a1.108,1.108,0,1,0,0-2.215Z" transform="translate(-292.874 -298.915)"/>
    </g>
  </g>
</svg>
